solid CATIA STL
  facet normal  0.000000e+000  0.000000e+000  1.000000e+000
    outer loop
      vertex -8.000000e+001  3.300000e+001  8.000000e+001
      vertex -8.000000e+001  1.800000e+001  8.000000e+001
      vertex -6.980000e+001  1.800000e+001  8.000000e+001
    endloop
  endfacet
  facet normal  0.000000e+000  -0.000000e+000  1.000000e+000
    outer loop
      vertex -6.980000e+001  1.300000e+001  8.000000e+001
      vertex -6.200000e+001  5.200000e+000  8.000000e+001
      vertex -5.700000e+001  5.200000e+000  8.000000e+001
    endloop
  endfacet
  facet normal  0.000000e+000  -0.000000e+000  1.000000e+000
    outer loop
      vertex -6.980000e+001  1.300000e+001  8.000000e+001
      vertex -5.700000e+001  5.200000e+000  8.000000e+001
      vertex -4.200000e+001  5.200000e+000  8.000000e+001
    endloop
  endfacet
  facet normal  0.000000e+000  -0.000000e+000  1.000000e+000
    outer loop
      vertex -6.980000e+001  1.300000e+001  8.000000e+001
      vertex -4.200000e+001  5.200000e+000  8.000000e+001
      vertex -3.700000e+001  5.200000e+000  8.000000e+001
    endloop
  endfacet
  facet normal  0.000000e+000  0.000000e+000  1.000000e+000
    outer loop
      vertex -6.980000e+001  1.300000e+001  8.000000e+001
      vertex -3.700000e+001  5.200000e+000  8.000000e+001
      vertex -6.980000e+001  1.800000e+001  8.000000e+001
    endloop
  endfacet
  facet normal  0.000000e+000  -0.000000e+000  1.000000e+000
    outer loop
      vertex -8.000000e+001  3.300000e+001  8.000000e+001
      vertex -6.980000e+001  1.800000e+001  8.000000e+001
      vertex -6.980000e+001  3.300000e+001  8.000000e+001
    endloop
  endfacet
  facet normal  0.000000e+000  0.000000e+000  1.000000e+000
    outer loop
      vertex -6.980000e+001  3.300000e+001  8.000000e+001
      vertex -6.980000e+001  1.800000e+001  8.000000e+001
      vertex -3.700000e+001  5.200000e+000  8.000000e+001
    endloop
  endfacet
  facet normal  0.000000e+000  0.000000e+000  1.000000e+000
    outer loop
      vertex -6.980000e+001  3.300000e+001  8.000000e+001
      vertex -3.700000e+001  5.200000e+000  8.000000e+001
      vertex -6.980000e+001  3.800000e+001  8.000000e+001
    endloop
  endfacet
  facet normal  0.000000e+000  0.000000e+000  1.000000e+000
    outer loop
      vertex -5.700000e+001  0.000000e+000  8.000000e+001
      vertex -4.200000e+001  8.540178e-015  8.000000e+001
      vertex -5.700000e+001  5.200000e+000  8.000000e+001
    endloop
  endfacet
  facet normal  -0.000000e+000  0.000000e+000  1.000000e+000
    outer loop
      vertex -5.700000e+001  5.200000e+000  8.000000e+001
      vertex -4.200000e+001  8.540178e-015  8.000000e+001
      vertex -4.200000e+001  5.200000e+000  8.000000e+001
    endloop
  endfacet
  facet normal  0.000000e+000  0.000000e+000 -1.000000e+000
    outer loop
      vertex -3.700000e+001  5.200000e+000  7.500000e+001
      vertex -6.980000e+001  1.300000e+001  7.500000e+001
      vertex -6.980000e+001  1.800000e+001  7.500000e+001
    endloop
  endfacet
  facet normal  0.000000e+000  0.000000e+000 -1.000000e+000
    outer loop
      vertex -3.700000e+001  5.200000e+000  7.500000e+001
      vertex -6.980000e+001  1.800000e+001  7.500000e+001
      vertex -6.980000e+001  3.300000e+001  7.500000e+001
    endloop
  endfacet
  facet normal  0.000000e+000  0.000000e+000 -1.000000e+000
    outer loop
      vertex -3.700000e+001  5.200000e+000  7.500000e+001
      vertex -6.980000e+001  3.300000e+001  7.500000e+001
      vertex -6.980000e+001  3.800000e+001  7.500000e+001
    endloop
  endfacet
  facet normal  0.000000e+000  0.000000e+000 -1.000000e+000
    outer loop
      vertex -6.980000e+001  1.300000e+001  7.500000e+001
      vertex -3.700000e+001  5.200000e+000  7.500000e+001
      vertex -4.200000e+001  5.200000e+000  7.500000e+001
    endloop
  endfacet
  facet normal  0.000000e+000  0.000000e+000 -1.000000e+000
    outer loop
      vertex -6.980000e+001  1.300000e+001  7.500000e+001
      vertex -4.200000e+001  5.200000e+000  7.500000e+001
      vertex -5.700000e+001  5.200000e+000  7.500000e+001
    endloop
  endfacet
  facet normal  0.000000e+000  0.000000e+000 -1.000000e+000
    outer loop
      vertex -6.980000e+001  1.300000e+001  7.500000e+001
      vertex -5.700000e+001  5.200000e+000  7.500000e+001
      vertex -6.200000e+001  5.200000e+000  7.500000e+001
    endloop
  endfacet
  facet normal  -0.000000e+000  0.000000e+000 -1.000000e+000
    outer loop
      vertex -5.700000e+001  5.200000e+000  7.500000e+001
      vertex -4.200000e+001  5.200000e+000  7.500000e+001
      vertex -5.700000e+001  0.000000e+000  7.500000e+001
    endloop
  endfacet
  facet normal  0.000000e+000  0.000000e+000 -1.000000e+000
    outer loop
      vertex -5.700000e+001  0.000000e+000  7.500000e+001
      vertex -4.200000e+001  5.200000e+000  7.500000e+001
      vertex -4.200000e+001  0.000000e+000  7.500000e+001
    endloop
  endfacet
  facet normal  0.000000e+000  0.000000e+000 -1.000000e+000
    outer loop
      vertex -8.000000e+001  1.800000e+001  7.500000e+001
      vertex -8.000000e+001  3.300000e+001  7.500000e+001
      vertex -6.980000e+001  1.800000e+001  7.500000e+001
    endloop
  endfacet
  facet normal  0.000000e+000  0.000000e+000 -1.000000e+000
    outer loop
      vertex -6.980000e+001  1.800000e+001  7.500000e+001
      vertex -8.000000e+001  3.300000e+001  7.500000e+001
      vertex -6.980000e+001  3.300000e+001  7.500000e+001
    endloop
  endfacet
  facet normal -1.000000e+000  0.000000e+000  0.000000e+000
    outer loop
      vertex -8.000000e+001  3.300000e+001  7.500000e+001
      vertex -8.000000e+001  1.800000e+001  7.500000e+001
      vertex -8.000000e+001  3.300000e+001  8.000000e+001
    endloop
  endfacet
  facet normal -1.000000e+000  -0.000000e+000  0.000000e+000
    outer loop
      vertex -8.000000e+001  3.300000e+001  8.000000e+001
      vertex -8.000000e+001  1.800000e+001  7.500000e+001
      vertex -8.000000e+001  1.800000e+001  8.000000e+001
    endloop
  endfacet
  facet normal  0.000000e+000 -1.000000e+000  0.000000e+000
    outer loop
      vertex -8.000000e+001  1.800000e+001  7.500000e+001
      vertex -6.980000e+001  1.800000e+001  7.500000e+001
      vertex -8.000000e+001  1.800000e+001  8.000000e+001
    endloop
  endfacet
  facet normal  0.000000e+000 -1.000000e+000  0.000000e+000
    outer loop
      vertex -8.000000e+001  1.800000e+001  8.000000e+001
      vertex -6.980000e+001  1.800000e+001  7.500000e+001
      vertex -6.980000e+001  1.800000e+001  8.000000e+001
    endloop
  endfacet
  facet normal -1.000000e+000  0.000000e+000  0.000000e+000
    outer loop
      vertex -6.980000e+001  1.800000e+001  7.500000e+001
      vertex -6.980000e+001  1.300000e+001  7.500000e+001
      vertex -6.980000e+001  1.800000e+001  8.000000e+001
    endloop
  endfacet
  facet normal -1.000000e+000  -0.000000e+000  0.000000e+000
    outer loop
      vertex -6.980000e+001  1.800000e+001  8.000000e+001
      vertex -6.980000e+001  1.300000e+001  7.500000e+001
      vertex -6.980000e+001  1.300000e+001  8.000000e+001
    endloop
  endfacet
  facet normal -7.071066e-001 -7.071069e-001  0.000000e+000
    outer loop
      vertex -6.980000e+001  1.300000e+001  7.500000e+001
      vertex -6.200000e+001  5.200000e+000  7.500000e+001
      vertex -6.980000e+001  1.300000e+001  8.000000e+001
    endloop
  endfacet
  facet normal -7.071066e-001 -7.071069e-001  0.000000e+000
    outer loop
      vertex -6.980000e+001  1.300000e+001  8.000000e+001
      vertex -6.200000e+001  5.200000e+000  7.500000e+001
      vertex -6.200000e+001  5.200000e+000  8.000000e+001
    endloop
  endfacet
  facet normal  0.000000e+000 -1.000000e+000  0.000000e+000
    outer loop
      vertex -6.200000e+001  5.200000e+000  7.500000e+001
      vertex -5.700000e+001  5.200000e+000  7.500000e+001
      vertex -6.200000e+001  5.200000e+000  8.000000e+001
    endloop
  endfacet
  facet normal  0.000000e+000 -1.000000e+000  0.000000e+000
    outer loop
      vertex -6.200000e+001  5.200000e+000  8.000000e+001
      vertex -5.700000e+001  5.200000e+000  7.500000e+001
      vertex -5.700000e+001  5.200000e+000  8.000000e+001
    endloop
  endfacet
  facet normal -1.000000e+000  0.000000e+000  0.000000e+000
    outer loop
      vertex -5.700000e+001  5.200000e+000  7.500000e+001
      vertex -5.700000e+001  0.000000e+000  7.500000e+001
      vertex -5.700000e+001  5.200000e+000  8.000000e+001
    endloop
  endfacet
  facet normal -1.000000e+000  -0.000000e+000  0.000000e+000
    outer loop
      vertex -5.700000e+001  5.200000e+000  8.000000e+001
      vertex -5.700000e+001  0.000000e+000  7.500000e+001
      vertex -5.700000e+001  0.000000e+000  8.000000e+001
    endloop
  endfacet
  facet normal  0.000000e+000 -1.000000e+000  0.000000e+000
    outer loop
      vertex -5.700000e+001  0.000000e+000  7.500000e+001
      vertex -4.200000e+001  0.000000e+000  7.500000e+001
      vertex -5.700000e+001  0.000000e+000  8.000000e+001
    endloop
  endfacet
  facet normal  5.693452e-016 -1.000000e+000  1.708035e-015
    outer loop
      vertex -5.700000e+001  0.000000e+000  8.000000e+001
      vertex -4.200000e+001  0.000000e+000  7.500000e+001
      vertex -4.200000e+001  8.540178e-015  8.000000e+001
    endloop
  endfacet
  facet normal  1.000000e+000  0.000000e+000  0.000000e+000
    outer loop
      vertex -4.200000e+001  0.000000e+000  7.500000e+001
      vertex -4.200000e+001  5.200000e+000  7.500000e+001
      vertex -4.200000e+001  8.540178e-015  8.000000e+001
    endloop
  endfacet
  facet normal  1.000000e+000  -0.000000e+000  0.000000e+000
    outer loop
      vertex -4.200000e+001  8.540178e-015  8.000000e+001
      vertex -4.200000e+001  5.200000e+000  7.500000e+001
      vertex -4.200000e+001  5.200000e+000  8.000000e+001
    endloop
  endfacet
  facet normal  0.000000e+000 -1.000000e+000  0.000000e+000
    outer loop
      vertex -4.200000e+001  5.200000e+000  7.500000e+001
      vertex -3.700000e+001  5.200000e+000  7.500000e+001
      vertex -4.200000e+001  5.200000e+000  8.000000e+001
    endloop
  endfacet
  facet normal  0.000000e+000 -1.000000e+000  0.000000e+000
    outer loop
      vertex -4.200000e+001  5.200000e+000  8.000000e+001
      vertex -3.700000e+001  5.200000e+000  7.500000e+001
      vertex -3.700000e+001  5.200000e+000  8.000000e+001
    endloop
  endfacet
  facet normal  7.071068e-001  7.071068e-001  0.000000e+000
    outer loop
      vertex -3.700000e+001  5.200000e+000  7.500000e+001
      vertex -6.980000e+001  3.800000e+001  7.500000e+001
      vertex -3.700000e+001  5.200000e+000  8.000000e+001
    endloop
  endfacet
  facet normal  7.071068e-001  7.071068e-001  0.000000e+000
    outer loop
      vertex -3.700000e+001  5.200000e+000  8.000000e+001
      vertex -6.980000e+001  3.800000e+001  7.500000e+001
      vertex -6.980000e+001  3.800000e+001  8.000000e+001
    endloop
  endfacet
  facet normal -1.000000e+000  0.000000e+000  0.000000e+000
    outer loop
      vertex -6.980000e+001  3.800000e+001  7.500000e+001
      vertex -6.980000e+001  3.300000e+001  7.500000e+001
      vertex -6.980000e+001  3.800000e+001  8.000000e+001
    endloop
  endfacet
  facet normal -1.000000e+000  -0.000000e+000  0.000000e+000
    outer loop
      vertex -6.980000e+001  3.800000e+001  8.000000e+001
      vertex -6.980000e+001  3.300000e+001  7.500000e+001
      vertex -6.980000e+001  3.300000e+001  8.000000e+001
    endloop
  endfacet
  facet normal  0.000000e+000  1.000000e+000  0.000000e+000
    outer loop
      vertex -6.980000e+001  3.300000e+001  7.500000e+001
      vertex -8.000000e+001  3.300000e+001  7.500000e+001
      vertex -6.980000e+001  3.300000e+001  8.000000e+001
    endloop
  endfacet
  facet normal  0.000000e+000  1.000000e+000  0.000000e+000
    outer loop
      vertex -6.980000e+001  3.300000e+001  8.000000e+001
      vertex -8.000000e+001  3.300000e+001  7.500000e+001
      vertex -8.000000e+001  3.300000e+001  8.000000e+001
    endloop
  endfacet
endsolid CATIA STL
