solid CATIA STL
  facet normal  0.000000e+000 -1.000000e+000  0.000000e+000
    outer loop
      vertex  6.000000e+001  2.751500e+002 -1.548000e+002
      vertex  7.000000e+001  2.751500e+002 -1.548000e+002
      vertex  7.480000e+001  2.751500e+002 -1.500000e+002
    endloop
  endfacet
  facet normal  0.000000e+000 -1.000000e+000  0.000000e+000
    outer loop
      vertex  6.000000e+001  2.751500e+002 -1.548000e+002
      vertex  7.480000e+001  2.751500e+002 -1.500000e+002
      vertex  4.500000e+001  2.751500e+002 -1.548000e+002
    endloop
  endfacet
  facet normal  0.000000e+000 -1.000000e+000  0.000000e+000
    outer loop
      vertex  6.000000e+001  2.751500e+002 -1.548000e+002
      vertex  4.500000e+001  2.751500e+002 -1.548000e+002
      vertex  4.500000e+001  2.751500e+002 -1.600000e+002
    endloop
  endfacet
  facet normal  0.000000e+000 -1.000000e+000  0.000000e+000
    outer loop
      vertex  6.000000e+001  2.751500e+002 -1.548000e+002
      vertex  4.500000e+001  2.751500e+002 -1.600000e+002
      vertex  6.000000e+001  2.751500e+002 -1.600000e+002
    endloop
  endfacet
  facet normal  0.000000e+000 -1.000000e+000  0.000000e+000
    outer loop
      vertex  3.500000e+001  2.751500e+002 -1.548000e+002
      vertex  4.500000e+001  2.751500e+002 -1.548000e+002
      vertex  7.480000e+001  2.751500e+002 -1.500000e+002
    endloop
  endfacet
  facet normal  -0.000000e+000 -1.000000e+000  0.000000e+000
    outer loop
      vertex  3.500000e+001  2.751500e+002 -1.548000e+002
      vertex  7.480000e+001  2.751500e+002 -1.500000e+002
      vertex  7.480000e+001  2.751500e+002 -1.400000e+002
    endloop
  endfacet
  facet normal  -0.000000e+000 -1.000000e+000  0.000000e+000
    outer loop
      vertex  3.500000e+001  2.751500e+002 -1.548000e+002
      vertex  7.480000e+001  2.751500e+002 -1.400000e+002
      vertex  7.480000e+001  2.751500e+002 -1.250000e+002
    endloop
  endfacet
  facet normal  -0.000000e+000 -1.000000e+000  0.000000e+000
    outer loop
      vertex  3.500000e+001  2.751500e+002 -1.548000e+002
      vertex  7.480000e+001  2.751500e+002 -1.250000e+002
      vertex  7.480000e+001  2.751500e+002 -1.150000e+002
    endloop
  endfacet
  facet normal  0.000000e+000 -1.000000e+000  0.000000e+000
    outer loop
      vertex  7.480000e+001  2.751500e+002 -1.250000e+002
      vertex  7.480000e+001  2.751500e+002 -1.400000e+002
      vertex  8.000000e+001  2.751500e+002 -1.250000e+002
    endloop
  endfacet
  facet normal  0.000000e+000 -1.000000e+000  -0.000000e+000
    outer loop
      vertex  8.000000e+001  2.751500e+002 -1.250000e+002
      vertex  7.480000e+001  2.751500e+002 -1.400000e+002
      vertex  8.000000e+001  2.751500e+002 -1.400000e+002
    endloop
  endfacet
  facet normal  0.000000e+000  1.000000e+000  0.000000e+000
    outer loop
      vertex  7.480000e+001  2.801500e+002 -1.400000e+002
      vertex  8.000000e+001  2.801500e+002 -1.250000e+002
      vertex  8.000000e+001  2.801500e+002 -1.400000e+002
    endloop
  endfacet
  facet normal  0.000000e+000  1.000000e+000  -0.000000e+000
    outer loop
      vertex  7.480000e+001  2.801500e+002 -1.500000e+002
      vertex  7.000000e+001  2.801500e+002 -1.548000e+002
      vertex  6.000000e+001  2.801500e+002 -1.548000e+002
    endloop
  endfacet
  facet normal  0.000000e+000  1.000000e+000  -0.000000e+000
    outer loop
      vertex  7.480000e+001  2.801500e+002 -1.500000e+002
      vertex  6.000000e+001  2.801500e+002 -1.548000e+002
      vertex  4.500000e+001  2.801500e+002 -1.548000e+002
    endloop
  endfacet
  facet normal  0.000000e+000  1.000000e+000  -0.000000e+000
    outer loop
      vertex  7.480000e+001  2.801500e+002 -1.500000e+002
      vertex  4.500000e+001  2.801500e+002 -1.548000e+002
      vertex  3.500000e+001  2.801500e+002 -1.548000e+002
    endloop
  endfacet
  facet normal  0.000000e+000  1.000000e+000  0.000000e+000
    outer loop
      vertex  7.480000e+001  2.801500e+002 -1.500000e+002
      vertex  3.500000e+001  2.801500e+002 -1.548000e+002
      vertex  7.480000e+001  2.801500e+002 -1.400000e+002
    endloop
  endfacet
  facet normal  0.000000e+000  1.000000e+000  0.000000e+000
    outer loop
      vertex  8.000000e+001  2.801500e+002 -1.250000e+002
      vertex  7.480000e+001  2.801500e+002 -1.400000e+002
      vertex  7.480000e+001  2.801500e+002 -1.250000e+002
    endloop
  endfacet
  facet normal  0.000000e+000  1.000000e+000  0.000000e+000
    outer loop
      vertex  7.480000e+001  2.801500e+002 -1.250000e+002
      vertex  7.480000e+001  2.801500e+002 -1.400000e+002
      vertex  3.500000e+001  2.801500e+002 -1.548000e+002
    endloop
  endfacet
  facet normal  0.000000e+000  1.000000e+000  0.000000e+000
    outer loop
      vertex  7.480000e+001  2.801500e+002 -1.250000e+002
      vertex  3.500000e+001  2.801500e+002 -1.548000e+002
      vertex  7.480000e+001  2.801500e+002 -1.150000e+002
    endloop
  endfacet
  facet normal  0.000000e+000  1.000000e+000  0.000000e+000
    outer loop
      vertex  6.000000e+001  2.801500e+002 -1.600000e+002
      vertex  4.500000e+001  2.801500e+002 -1.600000e+002
      vertex  6.000000e+001  2.801500e+002 -1.548000e+002
    endloop
  endfacet
  facet normal  0.000000e+000  1.000000e+000  0.000000e+000
    outer loop
      vertex  6.000000e+001  2.801500e+002 -1.548000e+002
      vertex  4.500000e+001  2.801500e+002 -1.600000e+002
      vertex  4.500000e+001  2.801500e+002 -1.548000e+002
    endloop
  endfacet
  facet normal  1.000000e+000  0.000000e+000  0.000000e+000
    outer loop
      vertex  6.000000e+001  2.801500e+002 -1.600000e+002
      vertex  6.000000e+001  2.801500e+002 -1.548000e+002
      vertex  6.000000e+001  2.751500e+002 -1.600000e+002
    endloop
  endfacet
  facet normal  1.000000e+000  0.000000e+000  0.000000e+000
    outer loop
      vertex  6.000000e+001  2.751500e+002 -1.600000e+002
      vertex  6.000000e+001  2.801500e+002 -1.548000e+002
      vertex  6.000000e+001  2.751500e+002 -1.548000e+002
    endloop
  endfacet
  facet normal  -0.000000e+000  0.000000e+000 -1.000000e+000
    outer loop
      vertex  6.000000e+001  2.801500e+002 -1.548000e+002
      vertex  7.000000e+001  2.801500e+002 -1.548000e+002
      vertex  6.000000e+001  2.751500e+002 -1.548000e+002
    endloop
  endfacet
  facet normal  0.000000e+000  0.000000e+000 -1.000000e+000
    outer loop
      vertex  6.000000e+001  2.751500e+002 -1.548000e+002
      vertex  7.000000e+001  2.801500e+002 -1.548000e+002
      vertex  7.000000e+001  2.751500e+002 -1.548000e+002
    endloop
  endfacet
  facet normal  7.071068e-001  0.000000e+000 -7.071068e-001
    outer loop
      vertex  7.000000e+001  2.801500e+002 -1.548000e+002
      vertex  7.480000e+001  2.801500e+002 -1.500000e+002
      vertex  7.000000e+001  2.751500e+002 -1.548000e+002
    endloop
  endfacet
  facet normal  7.071068e-001  0.000000e+000 -7.071068e-001
    outer loop
      vertex  7.000000e+001  2.751500e+002 -1.548000e+002
      vertex  7.480000e+001  2.801500e+002 -1.500000e+002
      vertex  7.480000e+001  2.751500e+002 -1.500000e+002
    endloop
  endfacet
  facet normal  1.000000e+000  0.000000e+000  0.000000e+000
    outer loop
      vertex  7.480000e+001  2.801500e+002 -1.500000e+002
      vertex  7.480000e+001  2.801500e+002 -1.400000e+002
      vertex  7.480000e+001  2.751500e+002 -1.500000e+002
    endloop
  endfacet
  facet normal  1.000000e+000  0.000000e+000  0.000000e+000
    outer loop
      vertex  7.480000e+001  2.751500e+002 -1.500000e+002
      vertex  7.480000e+001  2.801500e+002 -1.400000e+002
      vertex  7.480000e+001  2.751500e+002 -1.400000e+002
    endloop
  endfacet
  facet normal  -0.000000e+000  0.000000e+000 -1.000000e+000
    outer loop
      vertex  7.480000e+001  2.801500e+002 -1.400000e+002
      vertex  8.000000e+001  2.801500e+002 -1.400000e+002
      vertex  7.480000e+001  2.751500e+002 -1.400000e+002
    endloop
  endfacet
  facet normal  0.000000e+000  0.000000e+000 -1.000000e+000
    outer loop
      vertex  7.480000e+001  2.751500e+002 -1.400000e+002
      vertex  8.000000e+001  2.801500e+002 -1.400000e+002
      vertex  8.000000e+001  2.751500e+002 -1.400000e+002
    endloop
  endfacet
  facet normal  1.000000e+000  0.000000e+000  0.000000e+000
    outer loop
      vertex  8.000000e+001  2.801500e+002 -1.400000e+002
      vertex  8.000000e+001  2.801500e+002 -1.250000e+002
      vertex  8.000000e+001  2.751500e+002 -1.400000e+002
    endloop
  endfacet
  facet normal  1.000000e+000  0.000000e+000  0.000000e+000
    outer loop
      vertex  8.000000e+001  2.751500e+002 -1.400000e+002
      vertex  8.000000e+001  2.801500e+002 -1.250000e+002
      vertex  8.000000e+001  2.751500e+002 -1.250000e+002
    endloop
  endfacet
  facet normal  -0.000000e+000  0.000000e+000  1.000000e+000
    outer loop
      vertex  8.000000e+001  2.801500e+002 -1.250000e+002
      vertex  7.480000e+001  2.801500e+002 -1.250000e+002
      vertex  8.000000e+001  2.751500e+002 -1.250000e+002
    endloop
  endfacet
  facet normal  0.000000e+000  0.000000e+000  1.000000e+000
    outer loop
      vertex  8.000000e+001  2.751500e+002 -1.250000e+002
      vertex  7.480000e+001  2.801500e+002 -1.250000e+002
      vertex  7.480000e+001  2.751500e+002 -1.250000e+002
    endloop
  endfacet
  facet normal  1.000000e+000  0.000000e+000  0.000000e+000
    outer loop
      vertex  7.480000e+001  2.801500e+002 -1.250000e+002
      vertex  7.480000e+001  2.801500e+002 -1.150000e+002
      vertex  7.480000e+001  2.751500e+002 -1.250000e+002
    endloop
  endfacet
  facet normal  1.000000e+000  0.000000e+000  0.000000e+000
    outer loop
      vertex  7.480000e+001  2.751500e+002 -1.250000e+002
      vertex  7.480000e+001  2.801500e+002 -1.150000e+002
      vertex  7.480000e+001  2.751500e+002 -1.150000e+002
    endloop
  endfacet
  facet normal -7.071068e-001  0.000000e+000  7.071068e-001
    outer loop
      vertex  7.480000e+001  2.801500e+002 -1.150000e+002
      vertex  3.500000e+001  2.801500e+002 -1.548000e+002
      vertex  7.480000e+001  2.751500e+002 -1.150000e+002
    endloop
  endfacet
  facet normal -7.071068e-001  0.000000e+000  7.071068e-001
    outer loop
      vertex  7.480000e+001  2.751500e+002 -1.150000e+002
      vertex  3.500000e+001  2.801500e+002 -1.548000e+002
      vertex  3.500000e+001  2.751500e+002 -1.548000e+002
    endloop
  endfacet
  facet normal  -0.000000e+000  0.000000e+000 -1.000000e+000
    outer loop
      vertex  3.500000e+001  2.801500e+002 -1.548000e+002
      vertex  4.500000e+001  2.801500e+002 -1.548000e+002
      vertex  3.500000e+001  2.751500e+002 -1.548000e+002
    endloop
  endfacet
  facet normal  0.000000e+000  0.000000e+000 -1.000000e+000
    outer loop
      vertex  3.500000e+001  2.751500e+002 -1.548000e+002
      vertex  4.500000e+001  2.801500e+002 -1.548000e+002
      vertex  4.500000e+001  2.751500e+002 -1.548000e+002
    endloop
  endfacet
  facet normal -1.000000e+000  0.000000e+000  0.000000e+000
    outer loop
      vertex  4.500000e+001  2.801500e+002 -1.548000e+002
      vertex  4.500000e+001  2.801500e+002 -1.600000e+002
      vertex  4.500000e+001  2.751500e+002 -1.548000e+002
    endloop
  endfacet
  facet normal -1.000000e+000  0.000000e+000  0.000000e+000
    outer loop
      vertex  4.500000e+001  2.751500e+002 -1.548000e+002
      vertex  4.500000e+001  2.801500e+002 -1.600000e+002
      vertex  4.500000e+001  2.751500e+002 -1.600000e+002
    endloop
  endfacet
  facet normal  -0.000000e+000  0.000000e+000 -1.000000e+000
    outer loop
      vertex  4.500000e+001  2.801500e+002 -1.600000e+002
      vertex  6.000000e+001  2.801500e+002 -1.600000e+002
      vertex  4.500000e+001  2.751500e+002 -1.600000e+002
    endloop
  endfacet
  facet normal  0.000000e+000  0.000000e+000 -1.000000e+000
    outer loop
      vertex  4.500000e+001  2.751500e+002 -1.600000e+002
      vertex  6.000000e+001  2.801500e+002 -1.600000e+002
      vertex  6.000000e+001  2.751500e+002 -1.600000e+002
    endloop
  endfacet
endsolid CATIA STL
