solid CATIA STL
  facet normal  0.000000e+000  0.000000e+000 -1.000000e+000
    outer loop
      vertex -8.000000e+001  4.500000e+001  1.700000e+002
      vertex -6.980000e+001  3.000000e+001  1.700000e+002
      vertex -8.000000e+001  3.000000e+001  1.700000e+002
    endloop
  endfacet
  facet normal  0.000000e+000  0.000000e+000 -1.000000e+000
    outer loop
      vertex -4.500000e+001  5.200000e+000  1.700000e+002
      vertex -6.000000e+001  5.200000e+000  1.700000e+002
      vertex -6.980000e+001  1.500000e+001  1.700000e+002
    endloop
  endfacet
  facet normal  0.000000e+000  0.000000e+000 -1.000000e+000
    outer loop
      vertex -4.500000e+001  5.200000e+000  1.700000e+002
      vertex -6.980000e+001  1.500000e+001  1.700000e+002
      vertex -3.000000e+001  5.200000e+000  1.700000e+002
    endloop
  endfacet
  facet normal  -0.000000e+000  -0.000000e+000 -1.000000e+000
    outer loop
      vertex -4.500000e+001  5.200000e+000  1.700000e+002
      vertex -3.000000e+001  5.200000e+000  1.700000e+002
      vertex -3.000000e+001  0.000000e+000  1.700000e+002
    endloop
  endfacet
  facet normal  0.000000e+000  0.000000e+000 -1.000000e+000
    outer loop
      vertex -4.500000e+001  5.200000e+000  1.700000e+002
      vertex -3.000000e+001  0.000000e+000  1.700000e+002
      vertex -4.500000e+001  0.000000e+000  1.700000e+002
    endloop
  endfacet
  facet normal  0.000000e+000  0.000000e+000 -1.000000e+000
    outer loop
      vertex -1.500000e+001  5.200000e+000  1.700000e+002
      vertex -3.000000e+001  5.200000e+000  1.700000e+002
      vertex -6.980000e+001  1.500000e+001  1.700000e+002
    endloop
  endfacet
  facet normal  0.000000e+000  0.000000e+000 -1.000000e+000
    outer loop
      vertex -1.500000e+001  5.200000e+000  1.700000e+002
      vertex -6.980000e+001  1.500000e+001  1.700000e+002
      vertex -6.980000e+001  3.000000e+001  1.700000e+002
    endloop
  endfacet
  facet normal  0.000000e+000  0.000000e+000 -1.000000e+000
    outer loop
      vertex -1.500000e+001  5.200000e+000  1.700000e+002
      vertex -6.980000e+001  3.000000e+001  1.700000e+002
      vertex -8.000000e+001  4.500000e+001  1.700000e+002
    endloop
  endfacet
  facet normal  0.000000e+000  0.000000e+000 -1.000000e+000
    outer loop
      vertex -1.500000e+001  5.200000e+000  1.700000e+002
      vertex -8.000000e+001  4.500000e+001  1.700000e+002
      vertex -6.980000e+001  4.500000e+001  1.700000e+002
    endloop
  endfacet
  facet normal  0.000000e+000  0.000000e+000 -1.000000e+000
    outer loop
      vertex -1.500000e+001  5.200000e+000  1.700000e+002
      vertex -6.980000e+001  4.500000e+001  1.700000e+002
      vertex -6.980000e+001  6.000000e+001  1.700000e+002
    endloop
  endfacet
  facet normal  0.000000e+000  0.000000e+000  1.000000e+000
    outer loop
      vertex -6.980000e+001  3.000000e+001  1.750000e+002
      vertex -8.000000e+001  4.500000e+001  1.750000e+002
      vertex -8.000000e+001  3.000000e+001  1.750000e+002
    endloop
  endfacet
  facet normal  0.000000e+000  -0.000000e+000  1.000000e+000
    outer loop
      vertex -6.980000e+001  1.500000e+001  1.750000e+002
      vertex -6.000000e+001  5.200000e+000  1.750000e+002
      vertex -4.500000e+001  5.200000e+000  1.750000e+002
    endloop
  endfacet
  facet normal  0.000000e+000  -0.000000e+000  1.000000e+000
    outer loop
      vertex -6.980000e+001  1.500000e+001  1.750000e+002
      vertex -4.500000e+001  5.200000e+000  1.750000e+002
      vertex -3.000000e+001  5.200000e+000  1.750000e+002
    endloop
  endfacet
  facet normal  0.000000e+000  -0.000000e+000  1.000000e+000
    outer loop
      vertex -6.980000e+001  1.500000e+001  1.750000e+002
      vertex -3.000000e+001  5.200000e+000  1.750000e+002
      vertex -1.500000e+001  5.200000e+000  1.750000e+002
    endloop
  endfacet
  facet normal  0.000000e+000  0.000000e+000  1.000000e+000
    outer loop
      vertex -6.980000e+001  1.500000e+001  1.750000e+002
      vertex -1.500000e+001  5.200000e+000  1.750000e+002
      vertex -6.980000e+001  3.000000e+001  1.750000e+002
    endloop
  endfacet
  facet normal  0.000000e+000  -0.000000e+000  1.000000e+000
    outer loop
      vertex -8.000000e+001  4.500000e+001  1.750000e+002
      vertex -6.980000e+001  3.000000e+001  1.750000e+002
      vertex -6.980000e+001  4.500000e+001  1.750000e+002
    endloop
  endfacet
  facet normal  0.000000e+000  0.000000e+000  1.000000e+000
    outer loop
      vertex -6.980000e+001  4.500000e+001  1.750000e+002
      vertex -6.980000e+001  3.000000e+001  1.750000e+002
      vertex -1.500000e+001  5.200000e+000  1.750000e+002
    endloop
  endfacet
  facet normal  0.000000e+000  0.000000e+000  1.000000e+000
    outer loop
      vertex -6.980000e+001  4.500000e+001  1.750000e+002
      vertex -1.500000e+001  5.200000e+000  1.750000e+002
      vertex -6.980000e+001  6.000000e+001  1.750000e+002
    endloop
  endfacet
  facet normal  0.000000e+000  0.000000e+000  1.000000e+000
    outer loop
      vertex -4.500000e+001  0.000000e+000  1.750000e+002
      vertex -3.000000e+001  0.000000e+000  1.750000e+002
      vertex -4.500000e+001  5.200000e+000  1.750000e+002
    endloop
  endfacet
  facet normal  -0.000000e+000  0.000000e+000  1.000000e+000
    outer loop
      vertex -4.500000e+001  5.200000e+000  1.750000e+002
      vertex -3.000000e+001  0.000000e+000  1.750000e+002
      vertex -3.000000e+001  5.200000e+000  1.750000e+002
    endloop
  endfacet
  facet normal  0.000000e+000  1.000000e+000  0.000000e+000
    outer loop
      vertex -8.000000e+001  4.500000e+001  1.750000e+002
      vertex -6.980000e+001  4.500000e+001  1.750000e+002
      vertex -8.000000e+001  4.500000e+001  1.700000e+002
    endloop
  endfacet
  facet normal  0.000000e+000  1.000000e+000  0.000000e+000
    outer loop
      vertex -8.000000e+001  4.500000e+001  1.700000e+002
      vertex -6.980000e+001  4.500000e+001  1.750000e+002
      vertex -6.980000e+001  4.500000e+001  1.700000e+002
    endloop
  endfacet
  facet normal -1.000000e+000  -0.000000e+000  0.000000e+000
    outer loop
      vertex -6.980000e+001  4.500000e+001  1.750000e+002
      vertex -6.980000e+001  6.000000e+001  1.750000e+002
      vertex -6.980000e+001  4.500000e+001  1.700000e+002
    endloop
  endfacet
  facet normal -1.000000e+000  0.000000e+000  0.000000e+000
    outer loop
      vertex -6.980000e+001  4.500000e+001  1.700000e+002
      vertex -6.980000e+001  6.000000e+001  1.750000e+002
      vertex -6.980000e+001  6.000000e+001  1.700000e+002
    endloop
  endfacet
  facet normal  7.071068e-001  7.071068e-001  0.000000e+000
    outer loop
      vertex -6.980000e+001  6.000000e+001  1.750000e+002
      vertex -1.500000e+001  5.200000e+000  1.750000e+002
      vertex -6.980000e+001  6.000000e+001  1.700000e+002
    endloop
  endfacet
  facet normal  7.071068e-001  7.071068e-001  0.000000e+000
    outer loop
      vertex -6.980000e+001  6.000000e+001  1.700000e+002
      vertex -1.500000e+001  5.200000e+000  1.750000e+002
      vertex -1.500000e+001  5.200000e+000  1.700000e+002
    endloop
  endfacet
  facet normal  0.000000e+000 -1.000000e+000  0.000000e+000
    outer loop
      vertex -1.500000e+001  5.200000e+000  1.750000e+002
      vertex -3.000000e+001  5.200000e+000  1.750000e+002
      vertex -1.500000e+001  5.200000e+000  1.700000e+002
    endloop
  endfacet
  facet normal  0.000000e+000 -1.000000e+000  0.000000e+000
    outer loop
      vertex -1.500000e+001  5.200000e+000  1.700000e+002
      vertex -3.000000e+001  5.200000e+000  1.750000e+002
      vertex -3.000000e+001  5.200000e+000  1.700000e+002
    endloop
  endfacet
  facet normal  1.000000e+000  -0.000000e+000  0.000000e+000
    outer loop
      vertex -3.000000e+001  5.200000e+000  1.750000e+002
      vertex -3.000000e+001  0.000000e+000  1.750000e+002
      vertex -3.000000e+001  5.200000e+000  1.700000e+002
    endloop
  endfacet
  facet normal  1.000000e+000  0.000000e+000  0.000000e+000
    outer loop
      vertex -3.000000e+001  5.200000e+000  1.700000e+002
      vertex -3.000000e+001  0.000000e+000  1.750000e+002
      vertex -3.000000e+001  0.000000e+000  1.700000e+002
    endloop
  endfacet
  facet normal  0.000000e+000 -1.000000e+000  0.000000e+000
    outer loop
      vertex -3.000000e+001  0.000000e+000  1.750000e+002
      vertex -4.500000e+001  0.000000e+000  1.750000e+002
      vertex -3.000000e+001  0.000000e+000  1.700000e+002
    endloop
  endfacet
  facet normal  0.000000e+000 -1.000000e+000  0.000000e+000
    outer loop
      vertex -3.000000e+001  0.000000e+000  1.700000e+002
      vertex -4.500000e+001  0.000000e+000  1.750000e+002
      vertex -4.500000e+001  0.000000e+000  1.700000e+002
    endloop
  endfacet
  facet normal -1.000000e+000  -0.000000e+000  0.000000e+000
    outer loop
      vertex -4.500000e+001  0.000000e+000  1.750000e+002
      vertex -4.500000e+001  5.200000e+000  1.750000e+002
      vertex -4.500000e+001  0.000000e+000  1.700000e+002
    endloop
  endfacet
  facet normal -1.000000e+000  0.000000e+000  0.000000e+000
    outer loop
      vertex -4.500000e+001  0.000000e+000  1.700000e+002
      vertex -4.500000e+001  5.200000e+000  1.750000e+002
      vertex -4.500000e+001  5.200000e+000  1.700000e+002
    endloop
  endfacet
  facet normal  0.000000e+000 -1.000000e+000  0.000000e+000
    outer loop
      vertex -4.500000e+001  5.200000e+000  1.750000e+002
      vertex -6.000000e+001  5.200000e+000  1.750000e+002
      vertex -4.500000e+001  5.200000e+000  1.700000e+002
    endloop
  endfacet
  facet normal  0.000000e+000 -1.000000e+000  0.000000e+000
    outer loop
      vertex -4.500000e+001  5.200000e+000  1.700000e+002
      vertex -6.000000e+001  5.200000e+000  1.750000e+002
      vertex -6.000000e+001  5.200000e+000  1.700000e+002
    endloop
  endfacet
  facet normal -7.071066e-001 -7.071068e-001  0.000000e+000
    outer loop
      vertex -6.000000e+001  5.200000e+000  1.750000e+002
      vertex -6.980000e+001  1.500000e+001  1.750000e+002
      vertex -6.000000e+001  5.200000e+000  1.700000e+002
    endloop
  endfacet
  facet normal -7.071066e-001 -7.071068e-001  0.000000e+000
    outer loop
      vertex -6.000000e+001  5.200000e+000  1.700000e+002
      vertex -6.980000e+001  1.500000e+001  1.750000e+002
      vertex -6.980000e+001  1.500000e+001  1.700000e+002
    endloop
  endfacet
  facet normal -1.000000e+000  -0.000000e+000  0.000000e+000
    outer loop
      vertex -6.980000e+001  1.500000e+001  1.750000e+002
      vertex -6.980000e+001  3.000000e+001  1.750000e+002
      vertex -6.980000e+001  1.500000e+001  1.700000e+002
    endloop
  endfacet
  facet normal -1.000000e+000  0.000000e+000  0.000000e+000
    outer loop
      vertex -6.980000e+001  1.500000e+001  1.700000e+002
      vertex -6.980000e+001  3.000000e+001  1.750000e+002
      vertex -6.980000e+001  3.000000e+001  1.700000e+002
    endloop
  endfacet
  facet normal  0.000000e+000 -1.000000e+000  0.000000e+000
    outer loop
      vertex -6.980000e+001  3.000000e+001  1.750000e+002
      vertex -8.000000e+001  3.000000e+001  1.750000e+002
      vertex -6.980000e+001  3.000000e+001  1.700000e+002
    endloop
  endfacet
  facet normal  0.000000e+000 -1.000000e+000  0.000000e+000
    outer loop
      vertex -6.980000e+001  3.000000e+001  1.700000e+002
      vertex -8.000000e+001  3.000000e+001  1.750000e+002
      vertex -8.000000e+001  3.000000e+001  1.700000e+002
    endloop
  endfacet
  facet normal -1.000000e+000  -0.000000e+000  0.000000e+000
    outer loop
      vertex -8.000000e+001  3.000000e+001  1.750000e+002
      vertex -8.000000e+001  4.500000e+001  1.750000e+002
      vertex -8.000000e+001  3.000000e+001  1.700000e+002
    endloop
  endfacet
  facet normal -1.000000e+000  0.000000e+000  0.000000e+000
    outer loop
      vertex -8.000000e+001  3.000000e+001  1.700000e+002
      vertex -8.000000e+001  4.500000e+001  1.750000e+002
      vertex -8.000000e+001  4.500000e+001  1.700000e+002
    endloop
  endfacet
endsolid CATIA STL
