solid CATIA STL
  facet normal -1.000000e+000  -0.000000e+000  0.000000e+000
    outer loop
      vertex -8.000000e+001  0.000000e+000 -1.550000e+002
      vertex -8.000000e+001  1.730000e+001 -1.550000e+002
      vertex -8.000000e+001  0.000000e+000 -1.600000e+002
    endloop
  endfacet
  facet normal -1.000000e+000  0.000000e+000  0.000000e+000
    outer loop
      vertex -8.000000e+001  0.000000e+000 -1.600000e+002
      vertex -8.000000e+001  1.730000e+001 -1.550000e+002
      vertex -8.000000e+001  1.730000e+001 -1.600000e+002
    endloop
  endfacet
  facet normal  0.000000e+000 -1.000000e+000  0.000000e+000
    outer loop
      vertex  2.250000e+001  0.000000e+000 -1.550000e+002
      vertex  7.500000e+000  0.000000e+000 -1.550000e+002
      vertex  2.250000e+001  0.000000e+000 -1.600000e+002
    endloop
  endfacet
  facet normal  0.000000e+000 -1.000000e+000  0.000000e+000
    outer loop
      vertex  2.250000e+001  0.000000e+000 -1.600000e+002
      vertex  7.500000e+000  0.000000e+000 -1.550000e+002
      vertex  7.500000e+000  0.000000e+000 -1.600000e+002
    endloop
  endfacet
  facet normal  0.000000e+000 -1.000000e+000  0.000000e+000
    outer loop
      vertex  5.250000e+001  0.000000e+000 -1.550000e+002
      vertex  3.750000e+001  0.000000e+000 -1.550000e+002
      vertex  5.250000e+001  0.000000e+000 -1.600000e+002
    endloop
  endfacet
  facet normal  0.000000e+000 -1.000000e+000  0.000000e+000
    outer loop
      vertex  5.250000e+001  0.000000e+000 -1.600000e+002
      vertex  3.750000e+001  0.000000e+000 -1.550000e+002
      vertex  3.750000e+001  0.000000e+000 -1.600000e+002
    endloop
  endfacet
  facet normal  0.000000e+000 -1.000000e+000  0.000000e+000
    outer loop
      vertex -6.750000e+001  0.000000e+000 -1.550000e+002
      vertex -8.000000e+001  0.000000e+000 -1.550000e+002
      vertex -6.750000e+001  0.000000e+000 -1.600000e+002
    endloop
  endfacet
  facet normal  0.000000e+000 -1.000000e+000  0.000000e+000
    outer loop
      vertex -6.750000e+001  0.000000e+000 -1.600000e+002
      vertex -8.000000e+001  0.000000e+000 -1.550000e+002
      vertex -8.000000e+001  0.000000e+000 -1.600000e+002
    endloop
  endfacet
  facet normal  0.000000e+000 -1.000000e+000  0.000000e+000
    outer loop
      vertex -7.500000e+000  0.000000e+000 -1.550000e+002
      vertex -2.250000e+001  0.000000e+000 -1.550000e+002
      vertex -7.500000e+000  0.000000e+000 -1.600000e+002
    endloop
  endfacet
  facet normal  0.000000e+000 -1.000000e+000  0.000000e+000
    outer loop
      vertex -7.500000e+000  0.000000e+000 -1.600000e+002
      vertex -2.250000e+001  0.000000e+000 -1.550000e+002
      vertex -2.250000e+001  0.000000e+000 -1.600000e+002
    endloop
  endfacet
  facet normal  0.000000e+000 -1.000000e+000  0.000000e+000
    outer loop
      vertex  8.000000e+001  0.000000e+000 -1.550000e+002
      vertex  6.750000e+001  0.000000e+000 -1.550000e+002
      vertex  8.000000e+001  0.000000e+000 -1.600000e+002
    endloop
  endfacet
  facet normal  0.000000e+000 -1.000000e+000  0.000000e+000
    outer loop
      vertex  8.000000e+001  0.000000e+000 -1.600000e+002
      vertex  6.750000e+001  0.000000e+000 -1.550000e+002
      vertex  6.750000e+001  0.000000e+000 -1.600000e+002
    endloop
  endfacet
  facet normal  0.000000e+000 -1.000000e+000  -0.000000e+000
    outer loop
      vertex  7.500000e+000  5.000000e+000 -1.600000e+002
      vertex  7.500000e+000  5.000000e+000 -1.550000e+002
      vertex -7.500000e+000  5.000000e+000 -1.600000e+002
    endloop
  endfacet
  facet normal  0.000000e+000 -1.000000e+000  0.000000e+000
    outer loop
      vertex -7.500000e+000  5.000000e+000 -1.600000e+002
      vertex  7.500000e+000  5.000000e+000 -1.550000e+002
      vertex -7.500000e+000  5.000000e+000 -1.550000e+002
    endloop
  endfacet
  facet normal  1.000000e+000  0.000000e+000  0.000000e+000
    outer loop
      vertex -7.500000e+000  5.000000e+000 -1.600000e+002
      vertex -7.500000e+000  5.000000e+000 -1.550000e+002
      vertex -7.500000e+000  0.000000e+000 -1.600000e+002
    endloop
  endfacet
  facet normal  1.000000e+000  0.000000e+000  0.000000e+000
    outer loop
      vertex -7.500000e+000  0.000000e+000 -1.600000e+002
      vertex -7.500000e+000  5.000000e+000 -1.550000e+002
      vertex -7.500000e+000  0.000000e+000 -1.550000e+002
    endloop
  endfacet
  facet normal -1.000000e+000  0.000000e+000  0.000000e+000
    outer loop
      vertex  7.500000e+000  0.000000e+000 -1.600000e+002
      vertex  7.500000e+000  0.000000e+000 -1.550000e+002
      vertex  7.500000e+000  5.000000e+000 -1.600000e+002
    endloop
  endfacet
  facet normal -1.000000e+000  0.000000e+000  0.000000e+000
    outer loop
      vertex  7.500000e+000  5.000000e+000 -1.600000e+002
      vertex  7.500000e+000  0.000000e+000 -1.550000e+002
      vertex  7.500000e+000  5.000000e+000 -1.550000e+002
    endloop
  endfacet
  facet normal  0.000000e+000 -1.000000e+000  -0.000000e+000
    outer loop
      vertex  6.750000e+001  5.000000e+000 -1.600000e+002
      vertex  6.750000e+001  5.000000e+000 -1.550000e+002
      vertex  5.250000e+001  5.000000e+000 -1.600000e+002
    endloop
  endfacet
  facet normal  0.000000e+000 -1.000000e+000  0.000000e+000
    outer loop
      vertex  5.250000e+001  5.000000e+000 -1.600000e+002
      vertex  6.750000e+001  5.000000e+000 -1.550000e+002
      vertex  5.250000e+001  5.000000e+000 -1.550000e+002
    endloop
  endfacet
  facet normal  1.000000e+000  0.000000e+000  0.000000e+000
    outer loop
      vertex  5.250000e+001  5.000000e+000 -1.600000e+002
      vertex  5.250000e+001  5.000000e+000 -1.550000e+002
      vertex  5.250000e+001  0.000000e+000 -1.600000e+002
    endloop
  endfacet
  facet normal  1.000000e+000  0.000000e+000  0.000000e+000
    outer loop
      vertex  5.250000e+001  0.000000e+000 -1.600000e+002
      vertex  5.250000e+001  5.000000e+000 -1.550000e+002
      vertex  5.250000e+001  0.000000e+000 -1.550000e+002
    endloop
  endfacet
  facet normal -1.000000e+000  0.000000e+000  0.000000e+000
    outer loop
      vertex  6.750000e+001  0.000000e+000 -1.600000e+002
      vertex  6.750000e+001  0.000000e+000 -1.550000e+002
      vertex  6.750000e+001  5.000000e+000 -1.600000e+002
    endloop
  endfacet
  facet normal -1.000000e+000  0.000000e+000  0.000000e+000
    outer loop
      vertex  6.750000e+001  5.000000e+000 -1.600000e+002
      vertex  6.750000e+001  0.000000e+000 -1.550000e+002
      vertex  6.750000e+001  5.000000e+000 -1.550000e+002
    endloop
  endfacet
  facet normal  0.000000e+000 -1.000000e+000  -0.000000e+000
    outer loop
      vertex -2.250000e+001  5.000000e+000 -1.600000e+002
      vertex -2.250000e+001  5.000000e+000 -1.550000e+002
      vertex -6.750000e+001  5.000000e+000 -1.600000e+002
    endloop
  endfacet
  facet normal  0.000000e+000 -1.000000e+000  0.000000e+000
    outer loop
      vertex -6.750000e+001  5.000000e+000 -1.600000e+002
      vertex -2.250000e+001  5.000000e+000 -1.550000e+002
      vertex -6.750000e+001  5.000000e+000 -1.550000e+002
    endloop
  endfacet
  facet normal  1.000000e+000  0.000000e+000  0.000000e+000
    outer loop
      vertex -6.750000e+001  5.000000e+000 -1.600000e+002
      vertex -6.750000e+001  5.000000e+000 -1.550000e+002
      vertex -6.750000e+001  0.000000e+000 -1.600000e+002
    endloop
  endfacet
  facet normal  1.000000e+000  0.000000e+000  0.000000e+000
    outer loop
      vertex -6.750000e+001  0.000000e+000 -1.600000e+002
      vertex -6.750000e+001  5.000000e+000 -1.550000e+002
      vertex -6.750000e+001  0.000000e+000 -1.550000e+002
    endloop
  endfacet
  facet normal -1.000000e+000  0.000000e+000  0.000000e+000
    outer loop
      vertex -2.250000e+001  0.000000e+000 -1.600000e+002
      vertex -2.250000e+001  0.000000e+000 -1.550000e+002
      vertex -2.250000e+001  5.000000e+000 -1.600000e+002
    endloop
  endfacet
  facet normal -1.000000e+000  0.000000e+000  0.000000e+000
    outer loop
      vertex -2.250000e+001  5.000000e+000 -1.600000e+002
      vertex -2.250000e+001  0.000000e+000 -1.550000e+002
      vertex -2.250000e+001  5.000000e+000 -1.550000e+002
    endloop
  endfacet
  facet normal  0.000000e+000 -1.000000e+000  -0.000000e+000
    outer loop
      vertex  3.750000e+001  5.000000e+000 -1.600000e+002
      vertex  3.750000e+001  5.000000e+000 -1.550000e+002
      vertex  2.250000e+001  5.000000e+000 -1.600000e+002
    endloop
  endfacet
  facet normal  0.000000e+000 -1.000000e+000  0.000000e+000
    outer loop
      vertex  2.250000e+001  5.000000e+000 -1.600000e+002
      vertex  3.750000e+001  5.000000e+000 -1.550000e+002
      vertex  2.250000e+001  5.000000e+000 -1.550000e+002
    endloop
  endfacet
  facet normal  1.000000e+000  0.000000e+000  0.000000e+000
    outer loop
      vertex  2.250000e+001  5.000000e+000 -1.600000e+002
      vertex  2.250000e+001  5.000000e+000 -1.550000e+002
      vertex  2.250000e+001  0.000000e+000 -1.600000e+002
    endloop
  endfacet
  facet normal  1.000000e+000  0.000000e+000  0.000000e+000
    outer loop
      vertex  2.250000e+001  0.000000e+000 -1.600000e+002
      vertex  2.250000e+001  5.000000e+000 -1.550000e+002
      vertex  2.250000e+001  0.000000e+000 -1.550000e+002
    endloop
  endfacet
  facet normal -1.000000e+000  0.000000e+000  0.000000e+000
    outer loop
      vertex  3.750000e+001  0.000000e+000 -1.600000e+002
      vertex  3.750000e+001  0.000000e+000 -1.550000e+002
      vertex  3.750000e+001  5.000000e+000 -1.600000e+002
    endloop
  endfacet
  facet normal -1.000000e+000  0.000000e+000  0.000000e+000
    outer loop
      vertex  3.750000e+001  5.000000e+000 -1.600000e+002
      vertex  3.750000e+001  0.000000e+000 -1.550000e+002
      vertex  3.750000e+001  5.000000e+000 -1.550000e+002
    endloop
  endfacet
  facet normal  1.000000e+000  -0.000000e+000  0.000000e+000
    outer loop
      vertex  8.000000e+001  1.730000e+001 -1.550000e+002
      vertex  8.000000e+001  0.000000e+000 -1.550000e+002
      vertex  8.000000e+001  1.730000e+001 -1.600000e+002
    endloop
  endfacet
  facet normal  1.000000e+000  0.000000e+000  0.000000e+000
    outer loop
      vertex  8.000000e+001  1.730000e+001 -1.600000e+002
      vertex  8.000000e+001  0.000000e+000 -1.550000e+002
      vertex  8.000000e+001  0.000000e+000 -1.600000e+002
    endloop
  endfacet
  facet normal  1.000000e+000  -0.000000e+000  0.000000e+000
    outer loop
      vertex  8.000000e+001  6.250000e+001 -1.550000e+002
      vertex  8.000000e+001  3.270000e+001 -1.550000e+002
      vertex  8.000000e+001  6.250000e+001 -1.600000e+002
    endloop
  endfacet
  facet normal  1.000000e+000  0.000000e+000  0.000000e+000
    outer loop
      vertex  8.000000e+001  6.250000e+001 -1.600000e+002
      vertex  8.000000e+001  3.270000e+001 -1.550000e+002
      vertex  8.000000e+001  3.270000e+001 -1.600000e+002
    endloop
  endfacet
  facet normal -1.000000e+000  0.000000e+000  0.000000e+000
    outer loop
      vertex  7.000000e+001  5.500000e+001 -1.600000e+002
      vertex  7.000000e+001  5.500000e+001 -1.550000e+002
      vertex  7.000000e+001  6.250000e+001 -1.600000e+002
    endloop
  endfacet
  facet normal -1.000000e+000  0.000000e+000  0.000000e+000
    outer loop
      vertex  7.000000e+001  6.250000e+001 -1.600000e+002
      vertex  7.000000e+001  5.500000e+001 -1.550000e+002
      vertex  7.000000e+001  6.250000e+001 -1.550000e+002
    endloop
  endfacet
  facet normal  0.000000e+000  1.000000e+000  0.000000e+000
    outer loop
      vertex  8.000000e+001  6.250000e+001 -1.600000e+002
      vertex  7.000000e+001  6.250000e+001 -1.600000e+002
      vertex  8.000000e+001  6.250000e+001 -1.550000e+002
    endloop
  endfacet
  facet normal  0.000000e+000  1.000000e+000  0.000000e+000
    outer loop
      vertex  8.000000e+001  6.250000e+001 -1.550000e+002
      vertex  7.000000e+001  6.250000e+001 -1.600000e+002
      vertex  7.000000e+001  6.250000e+001 -1.550000e+002
    endloop
  endfacet
  facet normal  1.000000e+000  0.000000e+000  0.000000e+000
    outer loop
      vertex  6.980000e+001  1.730000e+001 -1.600000e+002
      vertex  6.980000e+001  3.270000e+001 -1.600000e+002
      vertex  6.980000e+001  1.730000e+001 -1.550000e+002
    endloop
  endfacet
  facet normal  1.000000e+000  -0.000000e+000  0.000000e+000
    outer loop
      vertex  6.980000e+001  1.730000e+001 -1.550000e+002
      vertex  6.980000e+001  3.270000e+001 -1.600000e+002
      vertex  6.980000e+001  3.270000e+001 -1.550000e+002
    endloop
  endfacet
  facet normal  0.000000e+000 -1.000000e+000  0.000000e+000
    outer loop
      vertex  8.000000e+001  3.270000e+001 -1.550000e+002
      vertex  6.980000e+001  3.270000e+001 -1.550000e+002
      vertex  8.000000e+001  3.270000e+001 -1.600000e+002
    endloop
  endfacet
  facet normal  0.000000e+000 -1.000000e+000  0.000000e+000
    outer loop
      vertex  8.000000e+001  3.270000e+001 -1.600000e+002
      vertex  6.980000e+001  3.270000e+001 -1.550000e+002
      vertex  6.980000e+001  3.270000e+001 -1.600000e+002
    endloop
  endfacet
  facet normal  0.000000e+000  1.000000e+000  0.000000e+000
    outer loop
      vertex  8.000000e+001  1.730000e+001 -1.600000e+002
      vertex  6.980000e+001  1.730000e+001 -1.600000e+002
      vertex  8.000000e+001  1.730000e+001 -1.550000e+002
    endloop
  endfacet
  facet normal  0.000000e+000  1.000000e+000  0.000000e+000
    outer loop
      vertex  8.000000e+001  1.730000e+001 -1.550000e+002
      vertex  6.980000e+001  1.730000e+001 -1.600000e+002
      vertex  6.980000e+001  1.730000e+001 -1.550000e+002
    endloop
  endfacet
  facet normal  0.000000e+000  1.000000e+000  0.000000e+000
    outer loop
      vertex -7.000000e+001  5.500000e+001 -1.550000e+002
      vertex  7.000000e+001  5.500000e+001 -1.550000e+002
      vertex -7.000000e+001  5.500000e+001 -1.600000e+002
    endloop
  endfacet
  facet normal  0.000000e+000  1.000000e+000  0.000000e+000
    outer loop
      vertex -7.000000e+001  5.500000e+001 -1.600000e+002
      vertex  7.000000e+001  5.500000e+001 -1.550000e+002
      vertex  7.000000e+001  5.500000e+001 -1.600000e+002
    endloop
  endfacet
  facet normal  0.000000e+000  0.000000e+000 -9.999999e-001
    outer loop
      vertex -7.000000e+001  5.500000e+001 -1.600000e+002
      vertex  8.000000e+001  3.270000e+001 -1.600000e+002
      vertex  6.980000e+001  3.270000e+001 -1.600000e+002
    endloop
  endfacet
  facet normal  0.000000e+000  0.000000e+000 -9.999999e-001
    outer loop
      vertex -7.000000e+001  5.500000e+001 -1.600000e+002
      vertex  6.980000e+001  3.270000e+001 -1.600000e+002
      vertex -6.980000e+001  3.270000e+001 -1.600000e+002
    endloop
  endfacet
  facet normal  0.000000e+000  0.000000e+000 -9.999999e-001
    outer loop
      vertex -7.000000e+001  5.500000e+001 -1.600000e+002
      vertex -6.980000e+001  3.270000e+001 -1.600000e+002
      vertex -8.000000e+001  3.270000e+001 -1.600000e+002
    endloop
  endfacet
  facet normal  0.000000e+000  0.000000e+000 -1.000000e+000
    outer loop
      vertex -7.000000e+001  5.500000e+001 -1.600000e+002
      vertex -8.000000e+001  3.270000e+001 -1.600000e+002
      vertex -8.000000e+001  6.250000e+001 -1.600000e+002
    endloop
  endfacet
  facet normal  0.000000e+000  0.000000e+000 -1.000000e+000
    outer loop
      vertex -7.000000e+001  5.500000e+001 -1.600000e+002
      vertex -8.000000e+001  6.250000e+001 -1.600000e+002
      vertex -7.000000e+001  6.250000e+001 -1.600000e+002
    endloop
  endfacet
  facet normal  0.000000e+000  0.000000e+000 -1.000000e+000
    outer loop
      vertex  8.000000e+001  3.270000e+001 -1.600000e+002
      vertex -7.000000e+001  5.500000e+001 -1.600000e+002
      vertex  7.000000e+001  5.500000e+001 -1.600000e+002
    endloop
  endfacet
  facet normal  0.000000e+000  0.000000e+000 -1.000000e+000
    outer loop
      vertex  8.000000e+001  3.270000e+001 -1.600000e+002
      vertex  7.000000e+001  5.500000e+001 -1.600000e+002
      vertex  7.000000e+001  6.250000e+001 -1.600000e+002
    endloop
  endfacet
  facet normal  0.000000e+000  0.000000e+000 -1.000000e+000
    outer loop
      vertex  8.000000e+001  3.270000e+001 -1.600000e+002
      vertex  7.000000e+001  6.250000e+001 -1.600000e+002
      vertex  8.000000e+001  6.250000e+001 -1.600000e+002
    endloop
  endfacet
  facet normal  0.000000e+000  0.000000e+000 -1.000000e+000
    outer loop
      vertex -8.000000e+001  1.730000e+001 -1.600000e+002
      vertex  6.750000e+001  5.000000e+000 -1.600000e+002
      vertex  5.250000e+001  5.000000e+000 -1.600000e+002
    endloop
  endfacet
  facet normal  0.000000e+000  0.000000e+000 -1.000000e+000
    outer loop
      vertex -8.000000e+001  1.730000e+001 -1.600000e+002
      vertex  5.250000e+001  5.000000e+000 -1.600000e+002
      vertex  3.750000e+001  5.000000e+000 -1.600000e+002
    endloop
  endfacet
  facet normal  0.000000e+000  0.000000e+000 -1.000000e+000
    outer loop
      vertex -8.000000e+001  1.730000e+001 -1.600000e+002
      vertex  3.750000e+001  5.000000e+000 -1.600000e+002
      vertex  2.250000e+001  5.000000e+000 -1.600000e+002
    endloop
  endfacet
  facet normal  0.000000e+000  0.000000e+000 -1.000000e+000
    outer loop
      vertex -8.000000e+001  1.730000e+001 -1.600000e+002
      vertex  2.250000e+001  5.000000e+000 -1.600000e+002
      vertex  7.500000e+000  5.000000e+000 -1.600000e+002
    endloop
  endfacet
  facet normal  0.000000e+000  0.000000e+000 -1.000000e+000
    outer loop
      vertex -8.000000e+001  1.730000e+001 -1.600000e+002
      vertex  7.500000e+000  5.000000e+000 -1.600000e+002
      vertex -7.500000e+000  5.000000e+000 -1.600000e+002
    endloop
  endfacet
  facet normal  0.000000e+000  0.000000e+000 -1.000000e+000
    outer loop
      vertex -8.000000e+001  1.730000e+001 -1.600000e+002
      vertex -7.500000e+000  5.000000e+000 -1.600000e+002
      vertex -2.250000e+001  5.000000e+000 -1.600000e+002
    endloop
  endfacet
  facet normal  0.000000e+000  0.000000e+000 -1.000000e+000
    outer loop
      vertex -8.000000e+001  1.730000e+001 -1.600000e+002
      vertex -2.250000e+001  5.000000e+000 -1.600000e+002
      vertex -6.750000e+001  5.000000e+000 -1.600000e+002
    endloop
  endfacet
  facet normal  -0.000000e+000  -0.000000e+000 -1.000000e+000
    outer loop
      vertex -8.000000e+001  1.730000e+001 -1.600000e+002
      vertex -6.750000e+001  5.000000e+000 -1.600000e+002
      vertex -6.750000e+001  0.000000e+000 -1.600000e+002
    endloop
  endfacet
  facet normal  0.000000e+000  0.000000e+000 -1.000000e+000
    outer loop
      vertex -8.000000e+001  1.730000e+001 -1.600000e+002
      vertex -6.750000e+001  0.000000e+000 -1.600000e+002
      vertex -8.000000e+001  0.000000e+000 -1.600000e+002
    endloop
  endfacet
  facet normal  0.000000e+000  0.000000e+000 -1.000000e+000
    outer loop
      vertex  6.750000e+001  5.000000e+000 -1.600000e+002
      vertex -8.000000e+001  1.730000e+001 -1.600000e+002
      vertex -6.980000e+001  1.730000e+001 -1.600000e+002
    endloop
  endfacet
  facet normal  0.000000e+000  0.000000e+000 -1.000000e+000
    outer loop
      vertex  6.750000e+001  5.000000e+000 -1.600000e+002
      vertex -6.980000e+001  1.730000e+001 -1.600000e+002
      vertex  6.980000e+001  1.730000e+001 -1.600000e+002
    endloop
  endfacet
  facet normal  0.000000e+000  -0.000000e+000 -1.000000e+000
    outer loop
      vertex  6.750000e+001  5.000000e+000 -1.600000e+002
      vertex  6.980000e+001  1.730000e+001 -1.600000e+002
      vertex  8.000000e+001  1.730000e+001 -1.600000e+002
    endloop
  endfacet
  facet normal  0.000000e+000  -0.000000e+000 -1.000000e+000
    outer loop
      vertex  6.750000e+001  5.000000e+000 -1.600000e+002
      vertex  8.000000e+001  1.730000e+001 -1.600000e+002
      vertex  8.000000e+001  0.000000e+000 -1.600000e+002
    endloop
  endfacet
  facet normal  0.000000e+000  0.000000e+000 -1.000000e+000
    outer loop
      vertex  6.750000e+001  5.000000e+000 -1.600000e+002
      vertex  8.000000e+001  0.000000e+000 -1.600000e+002
      vertex  6.750000e+001  0.000000e+000 -1.600000e+002
    endloop
  endfacet
  facet normal  0.000000e+000  0.000000e+000 -1.000000e+000
    outer loop
      vertex  2.250000e+001  0.000000e+000 -1.600000e+002
      vertex  7.500000e+000  0.000000e+000 -1.600000e+002
      vertex  2.250000e+001  5.000000e+000 -1.600000e+002
    endloop
  endfacet
  facet normal  -0.000000e+000  0.000000e+000 -1.000000e+000
    outer loop
      vertex  2.250000e+001  5.000000e+000 -1.600000e+002
      vertex  7.500000e+000  0.000000e+000 -1.600000e+002
      vertex  7.500000e+000  5.000000e+000 -1.600000e+002
    endloop
  endfacet
  facet normal  0.000000e+000  0.000000e+000 -1.000000e+000
    outer loop
      vertex  6.980000e+001  1.730000e+001 -1.600000e+002
      vertex -6.980000e+001  1.730000e+001 -1.600000e+002
      vertex  6.980000e+001  3.270000e+001 -1.600000e+002
    endloop
  endfacet
  facet normal  -0.000000e+000  0.000000e+000 -1.000000e+000
    outer loop
      vertex  6.980000e+001  3.270000e+001 -1.600000e+002
      vertex -6.980000e+001  1.730000e+001 -1.600000e+002
      vertex -6.980000e+001  3.270000e+001 -1.600000e+002
    endloop
  endfacet
  facet normal  0.000000e+000  0.000000e+000 -1.000000e+000
    outer loop
      vertex -7.500000e+000  0.000000e+000 -1.600000e+002
      vertex -2.250000e+001  0.000000e+000 -1.600000e+002
      vertex -7.500000e+000  5.000000e+000 -1.600000e+002
    endloop
  endfacet
  facet normal  -0.000000e+000  0.000000e+000 -1.000000e+000
    outer loop
      vertex -7.500000e+000  5.000000e+000 -1.600000e+002
      vertex -2.250000e+001  0.000000e+000 -1.600000e+002
      vertex -2.250000e+001  5.000000e+000 -1.600000e+002
    endloop
  endfacet
  facet normal  0.000000e+000  0.000000e+000 -1.000000e+000
    outer loop
      vertex  5.250000e+001  0.000000e+000 -1.600000e+002
      vertex  3.750000e+001  0.000000e+000 -1.600000e+002
      vertex  5.250000e+001  5.000000e+000 -1.600000e+002
    endloop
  endfacet
  facet normal  -0.000000e+000  0.000000e+000 -1.000000e+000
    outer loop
      vertex  5.250000e+001  5.000000e+000 -1.600000e+002
      vertex  3.750000e+001  0.000000e+000 -1.600000e+002
      vertex  3.750000e+001  5.000000e+000 -1.600000e+002
    endloop
  endfacet
  facet normal -1.000000e+000  -0.000000e+000  0.000000e+000
    outer loop
      vertex -8.000000e+001  3.270000e+001 -1.550000e+002
      vertex -8.000000e+001  6.250000e+001 -1.550000e+002
      vertex -8.000000e+001  3.270000e+001 -1.600000e+002
    endloop
  endfacet
  facet normal -1.000000e+000  0.000000e+000  0.000000e+000
    outer loop
      vertex -8.000000e+001  3.270000e+001 -1.600000e+002
      vertex -8.000000e+001  6.250000e+001 -1.550000e+002
      vertex -8.000000e+001  6.250000e+001 -1.600000e+002
    endloop
  endfacet
  facet normal  1.000000e+000  0.000000e+000  0.000000e+000
    outer loop
      vertex -7.000000e+001  5.500000e+001 -1.600000e+002
      vertex -7.000000e+001  6.250000e+001 -1.600000e+002
      vertex -7.000000e+001  5.500000e+001 -1.550000e+002
    endloop
  endfacet
  facet normal  1.000000e+000  -0.000000e+000  0.000000e+000
    outer loop
      vertex -7.000000e+001  5.500000e+001 -1.550000e+002
      vertex -7.000000e+001  6.250000e+001 -1.600000e+002
      vertex -7.000000e+001  6.250000e+001 -1.550000e+002
    endloop
  endfacet
  facet normal  0.000000e+000  1.000000e+000  0.000000e+000
    outer loop
      vertex -8.000000e+001  6.250000e+001 -1.600000e+002
      vertex -8.000000e+001  6.250000e+001 -1.550000e+002
      vertex -7.000000e+001  6.250000e+001 -1.600000e+002
    endloop
  endfacet
  facet normal  0.000000e+000  1.000000e+000  -0.000000e+000
    outer loop
      vertex -7.000000e+001  6.250000e+001 -1.600000e+002
      vertex -8.000000e+001  6.250000e+001 -1.550000e+002
      vertex -7.000000e+001  6.250000e+001 -1.550000e+002
    endloop
  endfacet
  facet normal -1.000000e+000  0.000000e+000  0.000000e+000
    outer loop
      vertex -6.980000e+001  1.730000e+001 -1.600000e+002
      vertex -6.980000e+001  1.730000e+001 -1.550000e+002
      vertex -6.980000e+001  3.270000e+001 -1.600000e+002
    endloop
  endfacet
  facet normal -1.000000e+000  0.000000e+000  0.000000e+000
    outer loop
      vertex -6.980000e+001  3.270000e+001 -1.600000e+002
      vertex -6.980000e+001  1.730000e+001 -1.550000e+002
      vertex -6.980000e+001  3.270000e+001 -1.550000e+002
    endloop
  endfacet
  facet normal  0.000000e+000 -1.000000e+000  0.000000e+000
    outer loop
      vertex -8.000000e+001  3.270000e+001 -1.550000e+002
      vertex -8.000000e+001  3.270000e+001 -1.600000e+002
      vertex -6.980000e+001  3.270000e+001 -1.550000e+002
    endloop
  endfacet
  facet normal  0.000000e+000 -1.000000e+000  -0.000000e+000
    outer loop
      vertex -6.980000e+001  3.270000e+001 -1.550000e+002
      vertex -8.000000e+001  3.270000e+001 -1.600000e+002
      vertex -6.980000e+001  3.270000e+001 -1.600000e+002
    endloop
  endfacet
  facet normal  0.000000e+000  1.000000e+000  0.000000e+000
    outer loop
      vertex -8.000000e+001  1.730000e+001 -1.600000e+002
      vertex -8.000000e+001  1.730000e+001 -1.550000e+002
      vertex -6.980000e+001  1.730000e+001 -1.600000e+002
    endloop
  endfacet
  facet normal  0.000000e+000  1.000000e+000  -0.000000e+000
    outer loop
      vertex -6.980000e+001  1.730000e+001 -1.600000e+002
      vertex -8.000000e+001  1.730000e+001 -1.550000e+002
      vertex -6.980000e+001  1.730000e+001 -1.550000e+002
    endloop
  endfacet
  facet normal  0.000000e+000  0.000000e+000  1.000000e+000
    outer loop
      vertex -7.000000e+001  5.500000e+001 -1.550000e+002
      vertex -7.000000e+001  6.250000e+001 -1.550000e+002
      vertex -8.000000e+001  6.250000e+001 -1.550000e+002
    endloop
  endfacet
  facet normal  0.000000e+000  0.000000e+000  1.000000e+000
    outer loop
      vertex -7.000000e+001  5.500000e+001 -1.550000e+002
      vertex -8.000000e+001  6.250000e+001 -1.550000e+002
      vertex -8.000000e+001  3.270000e+001 -1.550000e+002
    endloop
  endfacet
  facet normal  0.000000e+000  0.000000e+000  9.999999e-001
    outer loop
      vertex -7.000000e+001  5.500000e+001 -1.550000e+002
      vertex -8.000000e+001  3.270000e+001 -1.550000e+002
      vertex -6.980000e+001  3.270000e+001 -1.550000e+002
    endloop
  endfacet
  facet normal  0.000000e+000  -0.000000e+000  9.999999e-001
    outer loop
      vertex -7.000000e+001  5.500000e+001 -1.550000e+002
      vertex -6.980000e+001  3.270000e+001 -1.550000e+002
      vertex  6.980000e+001  3.270000e+001 -1.550000e+002
    endloop
  endfacet
  facet normal  0.000000e+000  -0.000000e+000  9.999999e-001
    outer loop
      vertex -7.000000e+001  5.500000e+001 -1.550000e+002
      vertex  6.980000e+001  3.270000e+001 -1.550000e+002
      vertex  8.000000e+001  3.270000e+001 -1.550000e+002
    endloop
  endfacet
  facet normal  0.000000e+000  0.000000e+000  1.000000e+000
    outer loop
      vertex  8.000000e+001  3.270000e+001 -1.550000e+002
      vertex  8.000000e+001  6.250000e+001 -1.550000e+002
      vertex  7.000000e+001  6.250000e+001 -1.550000e+002
    endloop
  endfacet
  facet normal  0.000000e+000  0.000000e+000  1.000000e+000
    outer loop
      vertex  8.000000e+001  3.270000e+001 -1.550000e+002
      vertex  7.000000e+001  6.250000e+001 -1.550000e+002
      vertex  7.000000e+001  5.500000e+001 -1.550000e+002
    endloop
  endfacet
  facet normal  0.000000e+000  0.000000e+000  1.000000e+000
    outer loop
      vertex  8.000000e+001  3.270000e+001 -1.550000e+002
      vertex  7.000000e+001  5.500000e+001 -1.550000e+002
      vertex -7.000000e+001  5.500000e+001 -1.550000e+002
    endloop
  endfacet
  facet normal  0.000000e+000  0.000000e+000  1.000000e+000
    outer loop
      vertex -8.000000e+001  1.730000e+001 -1.550000e+002
      vertex -8.000000e+001  0.000000e+000 -1.550000e+002
      vertex -6.750000e+001  0.000000e+000 -1.550000e+002
    endloop
  endfacet
  facet normal  0.000000e+000  -0.000000e+000  1.000000e+000
    outer loop
      vertex -8.000000e+001  1.730000e+001 -1.550000e+002
      vertex -6.750000e+001  0.000000e+000 -1.550000e+002
      vertex -6.750000e+001  5.000000e+000 -1.550000e+002
    endloop
  endfacet
  facet normal  0.000000e+000  -0.000000e+000  1.000000e+000
    outer loop
      vertex -8.000000e+001  1.730000e+001 -1.550000e+002
      vertex -6.750000e+001  5.000000e+000 -1.550000e+002
      vertex -2.250000e+001  5.000000e+000 -1.550000e+002
    endloop
  endfacet
  facet normal  0.000000e+000  -0.000000e+000  1.000000e+000
    outer loop
      vertex -8.000000e+001  1.730000e+001 -1.550000e+002
      vertex -2.250000e+001  5.000000e+000 -1.550000e+002
      vertex -7.500000e+000  5.000000e+000 -1.550000e+002
    endloop
  endfacet
  facet normal  0.000000e+000  -0.000000e+000  1.000000e+000
    outer loop
      vertex -8.000000e+001  1.730000e+001 -1.550000e+002
      vertex -7.500000e+000  5.000000e+000 -1.550000e+002
      vertex  7.500000e+000  5.000000e+000 -1.550000e+002
    endloop
  endfacet
  facet normal  0.000000e+000  -0.000000e+000  1.000000e+000
    outer loop
      vertex -8.000000e+001  1.730000e+001 -1.550000e+002
      vertex  7.500000e+000  5.000000e+000 -1.550000e+002
      vertex  2.250000e+001  5.000000e+000 -1.550000e+002
    endloop
  endfacet
  facet normal  0.000000e+000  -0.000000e+000  1.000000e+000
    outer loop
      vertex -8.000000e+001  1.730000e+001 -1.550000e+002
      vertex  2.250000e+001  5.000000e+000 -1.550000e+002
      vertex  3.750000e+001  5.000000e+000 -1.550000e+002
    endloop
  endfacet
  facet normal  0.000000e+000  -0.000000e+000  1.000000e+000
    outer loop
      vertex -8.000000e+001  1.730000e+001 -1.550000e+002
      vertex  3.750000e+001  5.000000e+000 -1.550000e+002
      vertex  5.250000e+001  5.000000e+000 -1.550000e+002
    endloop
  endfacet
  facet normal  0.000000e+000  -0.000000e+000  1.000000e+000
    outer loop
      vertex -8.000000e+001  1.730000e+001 -1.550000e+002
      vertex  5.250000e+001  5.000000e+000 -1.550000e+002
      vertex  6.750000e+001  5.000000e+000 -1.550000e+002
    endloop
  endfacet
  facet normal  0.000000e+000  0.000000e+000  1.000000e+000
    outer loop
      vertex  6.750000e+001  5.000000e+000 -1.550000e+002
      vertex  6.750000e+001  0.000000e+000 -1.550000e+002
      vertex  8.000000e+001  0.000000e+000 -1.550000e+002
    endloop
  endfacet
  facet normal  0.000000e+000  -0.000000e+000  1.000000e+000
    outer loop
      vertex  6.750000e+001  5.000000e+000 -1.550000e+002
      vertex  8.000000e+001  0.000000e+000 -1.550000e+002
      vertex  8.000000e+001  1.730000e+001 -1.550000e+002
    endloop
  endfacet
  facet normal  0.000000e+000  0.000000e+000  1.000000e+000
    outer loop
      vertex  6.750000e+001  5.000000e+000 -1.550000e+002
      vertex  8.000000e+001  1.730000e+001 -1.550000e+002
      vertex  6.980000e+001  1.730000e+001 -1.550000e+002
    endloop
  endfacet
  facet normal  0.000000e+000  0.000000e+000  1.000000e+000
    outer loop
      vertex  6.750000e+001  5.000000e+000 -1.550000e+002
      vertex  6.980000e+001  1.730000e+001 -1.550000e+002
      vertex -6.980000e+001  1.730000e+001 -1.550000e+002
    endloop
  endfacet
  facet normal  0.000000e+000  0.000000e+000  1.000000e+000
    outer loop
      vertex  6.750000e+001  5.000000e+000 -1.550000e+002
      vertex -6.980000e+001  1.730000e+001 -1.550000e+002
      vertex -8.000000e+001  1.730000e+001 -1.550000e+002
    endloop
  endfacet
  facet normal  0.000000e+000  0.000000e+000  1.000000e+000
    outer loop
      vertex  2.250000e+001  0.000000e+000 -1.550000e+002
      vertex  2.250000e+001  5.000000e+000 -1.550000e+002
      vertex  7.500000e+000  0.000000e+000 -1.550000e+002
    endloop
  endfacet
  facet normal  0.000000e+000  0.000000e+000  1.000000e+000
    outer loop
      vertex  7.500000e+000  0.000000e+000 -1.550000e+002
      vertex  2.250000e+001  5.000000e+000 -1.550000e+002
      vertex  7.500000e+000  5.000000e+000 -1.550000e+002
    endloop
  endfacet
  facet normal  0.000000e+000  0.000000e+000  1.000000e+000
    outer loop
      vertex  6.980000e+001  1.730000e+001 -1.550000e+002
      vertex  6.980000e+001  3.270000e+001 -1.550000e+002
      vertex -6.980000e+001  1.730000e+001 -1.550000e+002
    endloop
  endfacet
  facet normal  0.000000e+000  0.000000e+000  1.000000e+000
    outer loop
      vertex -6.980000e+001  1.730000e+001 -1.550000e+002
      vertex  6.980000e+001  3.270000e+001 -1.550000e+002
      vertex -6.980000e+001  3.270000e+001 -1.550000e+002
    endloop
  endfacet
  facet normal  0.000000e+000  0.000000e+000  1.000000e+000
    outer loop
      vertex -7.500000e+000  0.000000e+000 -1.550000e+002
      vertex -7.500000e+000  5.000000e+000 -1.550000e+002
      vertex -2.250000e+001  0.000000e+000 -1.550000e+002
    endloop
  endfacet
  facet normal  0.000000e+000  0.000000e+000  1.000000e+000
    outer loop
      vertex -2.250000e+001  0.000000e+000 -1.550000e+002
      vertex -7.500000e+000  5.000000e+000 -1.550000e+002
      vertex -2.250000e+001  5.000000e+000 -1.550000e+002
    endloop
  endfacet
  facet normal  0.000000e+000  0.000000e+000  1.000000e+000
    outer loop
      vertex  5.250000e+001  0.000000e+000 -1.550000e+002
      vertex  5.250000e+001  5.000000e+000 -1.550000e+002
      vertex  3.750000e+001  0.000000e+000 -1.550000e+002
    endloop
  endfacet
  facet normal  0.000000e+000  0.000000e+000  1.000000e+000
    outer loop
      vertex  3.750000e+001  0.000000e+000 -1.550000e+002
      vertex  5.250000e+001  5.000000e+000 -1.550000e+002
      vertex  3.750000e+001  5.000000e+000 -1.550000e+002
    endloop
  endfacet
endsolid CATIA STL
