solid CATIA STL
  facet normal  0.000000e+000  0.000000e+000  1.000000e+000
    outer loop
      vertex  4.240000e+001  3.081500e+002  2.400000e+001
      vertex  3.940000e+001  2.895000e+002  2.400000e+001
      vertex  4.240000e+001  2.895000e+002  2.400000e+001
    endloop
  endfacet
  facet normal  0.000000e+000  0.000000e+000  1.000000e+000
    outer loop
      vertex  4.240000e+001  3.081500e+002  2.400000e+001
      vertex  4.243144e+001  3.087098e+002  2.400000e+001
      vertex  3.940000e+001  2.895000e+002  2.400000e+001
    endloop
  endfacet
  facet normal  0.000000e+000  0.000000e+000  1.000000e+000
    outer loop
      vertex  6.980000e+001  2.098500e+002  2.400000e+001
      vertex  6.480000e+001  1.978500e+002  2.400000e+001
      vertex  6.980000e+001  1.978500e+002  2.400000e+001
    endloop
  endfacet
  facet normal  0.000000e+000  0.000000e+000  1.000000e+000
    outer loop
      vertex  2.940000e+001  3.197118e+002  2.400000e+001
      vertex  2.940000e+001  2.182882e+002  2.400000e+001
      vertex  3.940000e+001  2.895000e+002  2.400000e+001
    endloop
  endfacet
  facet normal  0.000000e+000  -0.000000e+000  1.000000e+000
    outer loop
      vertex  2.940000e+001  3.197118e+002  2.400000e+001
      vertex  3.940000e+001  2.895000e+002  2.400000e+001
      vertex  4.243144e+001  3.087098e+002  2.400000e+001
    endloop
  endfacet
  facet normal  0.000000e+000  -0.000000e+000  1.000000e+000
    outer loop
      vertex  2.940000e+001  3.197118e+002  2.400000e+001
      vertex  4.243144e+001  3.087098e+002  2.400000e+001
      vertex  4.252536e+001  3.092626e+002  2.400000e+001
    endloop
  endfacet
  facet normal  0.000000e+000  -0.000000e+000  1.000000e+000
    outer loop
      vertex  2.940000e+001  3.197118e+002  2.400000e+001
      vertex  4.252536e+001  3.092626e+002  2.400000e+001
      vertex  4.268058e+001  3.098014e+002  2.400000e+001
    endloop
  endfacet
  facet normal  0.000000e+000  -0.000000e+000  1.000000e+000
    outer loop
      vertex  2.940000e+001  3.197118e+002  2.400000e+001
      vertex  4.268058e+001  3.098014e+002  2.400000e+001
      vertex  4.289516e+001  3.103194e+002  2.400000e+001
    endloop
  endfacet
  facet normal  0.000000e+000  -0.000000e+000  1.000000e+000
    outer loop
      vertex  2.940000e+001  3.197118e+002  2.400000e+001
      vertex  4.289516e+001  3.103194e+002  2.400000e+001
      vertex  4.316638e+001  3.108102e+002  2.400000e+001
    endloop
  endfacet
  facet normal  0.000000e+000  -0.000000e+000  1.000000e+000
    outer loop
      vertex  2.940000e+001  3.197118e+002  2.400000e+001
      vertex  4.316638e+001  3.108102e+002  2.400000e+001
      vertex  4.349084e+001  3.112675e+002  2.400000e+001
    endloop
  endfacet
  facet normal  0.000000e+000  -0.000000e+000  1.000000e+000
    outer loop
      vertex  2.940000e+001  3.197118e+002  2.400000e+001
      vertex  4.349084e+001  3.112675e+002  2.400000e+001
      vertex  4.386447e+001  3.116855e+002  2.400000e+001
    endloop
  endfacet
  facet normal  0.000000e+000  -0.000000e+000  1.000000e+000
    outer loop
      vertex  2.940000e+001  3.197118e+002  2.400000e+001
      vertex  4.386447e+001  3.116855e+002  2.400000e+001
      vertex  4.428255e+001  3.120591e+002  2.400000e+001
    endloop
  endfacet
  facet normal  0.000000e+000  -0.000000e+000  1.000000e+000
    outer loop
      vertex  2.940000e+001  3.197118e+002  2.400000e+001
      vertex  4.428255e+001  3.120591e+002  2.400000e+001
      vertex  4.473984e+001  3.123836e+002  2.400000e+001
    endloop
  endfacet
  facet normal  0.000000e+000  -0.000000e+000  1.000000e+000
    outer loop
      vertex  2.940000e+001  3.197118e+002  2.400000e+001
      vertex  4.473984e+001  3.123836e+002  2.400000e+001
      vertex  4.523058e+001  3.126548e+002  2.400000e+001
    endloop
  endfacet
  facet normal  0.000000e+000  -0.000000e+000  1.000000e+000
    outer loop
      vertex  2.940000e+001  3.197118e+002  2.400000e+001
      vertex  4.523058e+001  3.126548e+002  2.400000e+001
      vertex  4.574860e+001  3.128694e+002  2.400000e+001
    endloop
  endfacet
  facet normal  0.000000e+000  -0.000000e+000  1.000000e+000
    outer loop
      vertex  2.940000e+001  3.197118e+002  2.400000e+001
      vertex  4.574860e+001  3.128694e+002  2.400000e+001
      vertex  4.628740e+001  3.130246e+002  2.400000e+001
    endloop
  endfacet
  facet normal  0.000000e+000  -0.000000e+000  1.000000e+000
    outer loop
      vertex  2.940000e+001  3.197118e+002  2.400000e+001
      vertex  4.628740e+001  3.130246e+002  2.400000e+001
      vertex  4.684018e+001  3.131186e+002  2.400000e+001
    endloop
  endfacet
  facet normal  0.000000e+000  -0.000000e+000  1.000000e+000
    outer loop
      vertex  2.940000e+001  3.197118e+002  2.400000e+001
      vertex  4.684018e+001  3.131186e+002  2.400000e+001
      vertex  4.740000e+001  3.131500e+002  2.400000e+001
    endloop
  endfacet
  facet normal  0.000000e+000  -0.000000e+000  1.000000e+000
    outer loop
      vertex  2.940000e+001  3.197118e+002  2.400000e+001
      vertex  4.740000e+001  3.131500e+002  2.400000e+001
      vertex  8.000000e+001  3.131500e+002  2.400000e+001
    endloop
  endfacet
  facet normal  0.000000e+000  -0.000000e+000  1.000000e+000
    outer loop
      vertex  2.940000e+001  3.197118e+002  2.400000e+001
      vertex  8.000000e+001  3.131500e+002  2.400000e+001
      vertex  8.000000e+001  3.281500e+002  2.400000e+001
    endloop
  endfacet
  facet normal  0.000000e+000  0.000000e+000  1.000000e+000
    outer loop
      vertex  2.940000e+001  3.197118e+002  2.400000e+001
      vertex  8.000000e+001  3.281500e+002  2.400000e+001
      vertex  6.980000e+001  3.281500e+002  2.400000e+001
    endloop
  endfacet
  facet normal  0.000000e+000  -0.000000e+000  1.000000e+000
    outer loop
      vertex  2.940000e+001  3.197118e+002  2.400000e+001
      vertex  6.980000e+001  3.281500e+002  2.400000e+001
      vertex  6.980000e+001  3.401500e+002  2.400000e+001
    endloop
  endfacet
  facet normal  0.000000e+000  0.000000e+000  9.999999e-001
    outer loop
      vertex  2.940000e+001  3.197118e+002  2.400000e+001
      vertex  6.980000e+001  3.401500e+002  2.400000e+001
      vertex  6.480000e+001  3.401500e+002  2.400000e+001
    endloop
  endfacet
  facet normal  0.000000e+000  -0.000000e+000  1.000000e+000
    outer loop
      vertex  2.940000e+001  2.182882e+002  2.400000e+001
      vertex  6.480000e+001  1.978500e+002  2.400000e+001
      vertex  6.980000e+001  2.098500e+002  2.400000e+001
    endloop
  endfacet
  facet normal  0.000000e+000  -0.000000e+000  1.000000e+000
    outer loop
      vertex  2.940000e+001  2.182882e+002  2.400000e+001
      vertex  6.980000e+001  2.098500e+002  2.400000e+001
      vertex  8.000000e+001  2.098500e+002  2.400000e+001
    endloop
  endfacet
  facet normal  0.000000e+000  -0.000000e+000  1.000000e+000
    outer loop
      vertex  2.940000e+001  2.182882e+002  2.400000e+001
      vertex  8.000000e+001  2.098500e+002  2.400000e+001
      vertex  8.000000e+001  2.248500e+002  2.400000e+001
    endloop
  endfacet
  facet normal  0.000000e+000  0.000000e+000  1.000000e+000
    outer loop
      vertex  2.940000e+001  2.182882e+002  2.400000e+001
      vertex  8.000000e+001  2.248500e+002  2.400000e+001
      vertex  4.740000e+001  2.248500e+002  2.400000e+001
    endloop
  endfacet
  facet normal  0.000000e+000  0.000000e+000  1.000000e+000
    outer loop
      vertex  2.940000e+001  2.182882e+002  2.400000e+001
      vertex  4.740000e+001  2.248500e+002  2.400000e+001
      vertex  4.684018e+001  2.248814e+002  2.400000e+001
    endloop
  endfacet
  facet normal  0.000000e+000  0.000000e+000  1.000000e+000
    outer loop
      vertex  2.940000e+001  2.182882e+002  2.400000e+001
      vertex  4.684018e+001  2.248814e+002  2.400000e+001
      vertex  4.628740e+001  2.249754e+002  2.400000e+001
    endloop
  endfacet
  facet normal  0.000000e+000  0.000000e+000  1.000000e+000
    outer loop
      vertex  2.940000e+001  2.182882e+002  2.400000e+001
      vertex  4.628740e+001  2.249754e+002  2.400000e+001
      vertex  4.574860e+001  2.251306e+002  2.400000e+001
    endloop
  endfacet
  facet normal  0.000000e+000  0.000000e+000  1.000000e+000
    outer loop
      vertex  2.940000e+001  2.182882e+002  2.400000e+001
      vertex  4.574860e+001  2.251306e+002  2.400000e+001
      vertex  4.523058e+001  2.253452e+002  2.400000e+001
    endloop
  endfacet
  facet normal  0.000000e+000  0.000000e+000  1.000000e+000
    outer loop
      vertex  2.940000e+001  2.182882e+002  2.400000e+001
      vertex  4.523058e+001  2.253452e+002  2.400000e+001
      vertex  4.473984e+001  2.256164e+002  2.400000e+001
    endloop
  endfacet
  facet normal  0.000000e+000  0.000000e+000  1.000000e+000
    outer loop
      vertex  2.940000e+001  2.182882e+002  2.400000e+001
      vertex  4.473984e+001  2.256164e+002  2.400000e+001
      vertex  4.428255e+001  2.259408e+002  2.400000e+001
    endloop
  endfacet
  facet normal  0.000000e+000  0.000000e+000  1.000000e+000
    outer loop
      vertex  2.940000e+001  2.182882e+002  2.400000e+001
      vertex  4.428255e+001  2.259408e+002  2.400000e+001
      vertex  4.386447e+001  2.263145e+002  2.400000e+001
    endloop
  endfacet
  facet normal  0.000000e+000  0.000000e+000  1.000000e+000
    outer loop
      vertex  2.940000e+001  2.182882e+002  2.400000e+001
      vertex  4.386447e+001  2.263145e+002  2.400000e+001
      vertex  4.349084e+001  2.267325e+002  2.400000e+001
    endloop
  endfacet
  facet normal  0.000000e+000  0.000000e+000  1.000000e+000
    outer loop
      vertex  2.940000e+001  2.182882e+002  2.400000e+001
      vertex  4.349084e+001  2.267325e+002  2.400000e+001
      vertex  4.316638e+001  2.271898e+002  2.400000e+001
    endloop
  endfacet
  facet normal  0.000000e+000  0.000000e+000  1.000000e+000
    outer loop
      vertex  2.940000e+001  2.182882e+002  2.400000e+001
      vertex  4.316638e+001  2.271898e+002  2.400000e+001
      vertex  4.289516e+001  2.276806e+002  2.400000e+001
    endloop
  endfacet
  facet normal  0.000000e+000  0.000000e+000  1.000000e+000
    outer loop
      vertex  2.940000e+001  2.182882e+002  2.400000e+001
      vertex  4.289516e+001  2.276806e+002  2.400000e+001
      vertex  4.268058e+001  2.281986e+002  2.400000e+001
    endloop
  endfacet
  facet normal  0.000000e+000  0.000000e+000  1.000000e+000
    outer loop
      vertex  2.940000e+001  2.182882e+002  2.400000e+001
      vertex  4.268058e+001  2.281986e+002  2.400000e+001
      vertex  4.252536e+001  2.287374e+002  2.400000e+001
    endloop
  endfacet
  facet normal  0.000000e+000  0.000000e+000  1.000000e+000
    outer loop
      vertex  2.940000e+001  2.182882e+002  2.400000e+001
      vertex  4.252536e+001  2.287374e+002  2.400000e+001
      vertex  4.243144e+001  2.292902e+002  2.400000e+001
    endloop
  endfacet
  facet normal  0.000000e+000  0.000000e+000  1.000000e+000
    outer loop
      vertex  2.940000e+001  2.182882e+002  2.400000e+001
      vertex  4.243144e+001  2.292902e+002  2.400000e+001
      vertex  4.240000e+001  2.298500e+002  2.400000e+001
    endloop
  endfacet
  facet normal  0.000000e+000  -0.000000e+000  1.000000e+000
    outer loop
      vertex  2.940000e+001  2.182882e+002  2.400000e+001
      vertex  4.240000e+001  2.298500e+002  2.400000e+001
      vertex  4.240000e+001  2.485000e+002  2.400000e+001
    endloop
  endfacet
  facet normal  0.000000e+000  0.000000e+000  1.000000e+000
    outer loop
      vertex  2.940000e+001  2.182882e+002  2.400000e+001
      vertex  4.240000e+001  2.485000e+002  2.400000e+001
      vertex  3.940000e+001  2.485000e+002  2.400000e+001
    endloop
  endfacet
  facet normal  0.000000e+000  -0.000000e+000  1.000000e+000
    outer loop
      vertex  2.940000e+001  2.182882e+002  2.400000e+001
      vertex  3.940000e+001  2.485000e+002  2.400000e+001
      vertex  3.940000e+001  2.895000e+002  2.400000e+001
    endloop
  endfacet
  facet normal  0.000000e+000 -1.000000e+000  0.000000e+000
    outer loop
      vertex  3.940000e+001  2.895000e+002  1.900000e+001
      vertex  4.240000e+001  2.895000e+002  1.900000e+001
      vertex  3.940000e+001  2.895000e+002  2.400000e+001
    endloop
  endfacet
  facet normal  0.000000e+000 -1.000000e+000  0.000000e+000
    outer loop
      vertex  3.940000e+001  2.895000e+002  2.400000e+001
      vertex  4.240000e+001  2.895000e+002  1.900000e+001
      vertex  4.240000e+001  2.895000e+002  2.400000e+001
    endloop
  endfacet
  facet normal  9.999999e-001  0.000000e+000  0.000000e+000
    outer loop
      vertex  4.240000e+001  2.895000e+002  1.900000e+001
      vertex  4.240000e+001  3.081500e+002  1.900000e+001
      vertex  4.240000e+001  2.895000e+002  2.400000e+001
    endloop
  endfacet
  facet normal  9.999999e-001  -0.000000e+000  0.000000e+000
    outer loop
      vertex  4.240000e+001  2.895000e+002  2.400000e+001
      vertex  4.240000e+001  3.081500e+002  1.900000e+001
      vertex  4.240000e+001  3.081500e+002  2.400000e+001
    endloop
  endfacet
  facet normal  1.000000e+000  0.000000e+000  0.000000e+000
    outer loop
      vertex  8.000000e+001  3.131500e+002  1.900000e+001
      vertex  8.000000e+001  3.281500e+002  1.900000e+001
      vertex  8.000000e+001  3.131500e+002  2.400000e+001
    endloop
  endfacet
  facet normal  1.000000e+000  -0.000000e+000  0.000000e+000
    outer loop
      vertex  8.000000e+001  3.131500e+002  2.400000e+001
      vertex  8.000000e+001  3.281500e+002  1.900000e+001
      vertex  8.000000e+001  3.281500e+002  2.400000e+001
    endloop
  endfacet
  facet normal  0.000000e+000  1.000000e+000  0.000000e+000
    outer loop
      vertex  8.000000e+001  3.281500e+002  1.900000e+001
      vertex  6.980000e+001  3.281500e+002  1.900000e+001
      vertex  8.000000e+001  3.281500e+002  2.400000e+001
    endloop
  endfacet
  facet normal  0.000000e+000  1.000000e+000  0.000000e+000
    outer loop
      vertex  8.000000e+001  3.281500e+002  2.400000e+001
      vertex  6.980000e+001  3.281500e+002  1.900000e+001
      vertex  6.980000e+001  3.281500e+002  2.400000e+001
    endloop
  endfacet
  facet normal  1.000000e+000  0.000000e+000  0.000000e+000
    outer loop
      vertex  6.980000e+001  3.281500e+002  1.900000e+001
      vertex  6.980000e+001  3.401500e+002  1.900000e+001
      vertex  6.980000e+001  3.281500e+002  2.400000e+001
    endloop
  endfacet
  facet normal  1.000000e+000  -0.000000e+000  0.000000e+000
    outer loop
      vertex  6.980000e+001  3.281500e+002  2.400000e+001
      vertex  6.980000e+001  3.401500e+002  1.900000e+001
      vertex  6.980000e+001  3.401500e+002  2.400000e+001
    endloop
  endfacet
  facet normal  0.000000e+000  1.000000e+000  0.000000e+000
    outer loop
      vertex  6.980000e+001  3.401500e+002  1.900000e+001
      vertex  6.480000e+001  3.401500e+002  1.900000e+001
      vertex  6.980000e+001  3.401500e+002  2.400000e+001
    endloop
  endfacet
  facet normal  0.000000e+000  1.000000e+000  0.000000e+000
    outer loop
      vertex  6.980000e+001  3.401500e+002  2.400000e+001
      vertex  6.480000e+001  3.401500e+002  1.900000e+001
      vertex  6.480000e+001  3.401500e+002  2.400000e+001
    endloop
  endfacet
  facet normal -5.000000e-001  8.660253e-001  0.000000e+000
    outer loop
      vertex  6.480000e+001  3.401500e+002  1.900000e+001
      vertex  2.940000e+001  3.197118e+002  1.900000e+001
      vertex  6.480000e+001  3.401500e+002  2.400000e+001
    endloop
  endfacet
  facet normal -5.000000e-001  8.660253e-001  0.000000e+000
    outer loop
      vertex  6.480000e+001  3.401500e+002  2.400000e+001
      vertex  2.940000e+001  3.197118e+002  1.900000e+001
      vertex  2.940000e+001  3.197118e+002  2.400000e+001
    endloop
  endfacet
  facet normal -1.000000e+000  0.000000e+000  0.000000e+000
    outer loop
      vertex  2.940000e+001  3.197118e+002  1.900000e+001
      vertex  2.940000e+001  2.182882e+002  1.900000e+001
      vertex  2.940000e+001  3.197118e+002  2.400000e+001
    endloop
  endfacet
  facet normal -1.000000e+000  -0.000000e+000  0.000000e+000
    outer loop
      vertex  2.940000e+001  3.197118e+002  2.400000e+001
      vertex  2.940000e+001  2.182882e+002  1.900000e+001
      vertex  2.940000e+001  2.182882e+002  2.400000e+001
    endloop
  endfacet
  facet normal -4.999998e-001 -8.660255e-001  0.000000e+000
    outer loop
      vertex  2.940000e+001  2.182882e+002  1.900000e+001
      vertex  6.480000e+001  1.978500e+002  1.900000e+001
      vertex  2.940000e+001  2.182882e+002  2.400000e+001
    endloop
  endfacet
  facet normal -4.999998e-001 -8.660255e-001  0.000000e+000
    outer loop
      vertex  2.940000e+001  2.182882e+002  2.400000e+001
      vertex  6.480000e+001  1.978500e+002  1.900000e+001
      vertex  6.480000e+001  1.978500e+002  2.400000e+001
    endloop
  endfacet
  facet normal  0.000000e+000 -1.000000e+000  0.000000e+000
    outer loop
      vertex  6.480000e+001  1.978500e+002  1.900000e+001
      vertex  6.980000e+001  1.978500e+002  1.900000e+001
      vertex  6.480000e+001  1.978500e+002  2.400000e+001
    endloop
  endfacet
  facet normal  0.000000e+000 -1.000000e+000  0.000000e+000
    outer loop
      vertex  6.480000e+001  1.978500e+002  2.400000e+001
      vertex  6.980000e+001  1.978500e+002  1.900000e+001
      vertex  6.980000e+001  1.978500e+002  2.400000e+001
    endloop
  endfacet
  facet normal  1.000000e+000  0.000000e+000  0.000000e+000
    outer loop
      vertex  6.980000e+001  1.978500e+002  1.900000e+001
      vertex  6.980000e+001  2.098500e+002  1.900000e+001
      vertex  6.980000e+001  1.978500e+002  2.400000e+001
    endloop
  endfacet
  facet normal  1.000000e+000  -0.000000e+000  0.000000e+000
    outer loop
      vertex  6.980000e+001  1.978500e+002  2.400000e+001
      vertex  6.980000e+001  2.098500e+002  1.900000e+001
      vertex  6.980000e+001  2.098500e+002  2.400000e+001
    endloop
  endfacet
  facet normal  0.000000e+000 -1.000000e+000  0.000000e+000
    outer loop
      vertex  6.980000e+001  2.098500e+002  1.900000e+001
      vertex  8.000000e+001  2.098500e+002  1.900000e+001
      vertex  6.980000e+001  2.098500e+002  2.400000e+001
    endloop
  endfacet
  facet normal  0.000000e+000 -1.000000e+000  0.000000e+000
    outer loop
      vertex  6.980000e+001  2.098500e+002  2.400000e+001
      vertex  8.000000e+001  2.098500e+002  1.900000e+001
      vertex  8.000000e+001  2.098500e+002  2.400000e+001
    endloop
  endfacet
  facet normal  1.000000e+000  0.000000e+000  0.000000e+000
    outer loop
      vertex  8.000000e+001  2.098500e+002  1.900000e+001
      vertex  8.000000e+001  2.248500e+002  1.900000e+001
      vertex  8.000000e+001  2.098500e+002  2.400000e+001
    endloop
  endfacet
  facet normal  1.000000e+000  -0.000000e+000  0.000000e+000
    outer loop
      vertex  8.000000e+001  2.098500e+002  2.400000e+001
      vertex  8.000000e+001  2.248500e+002  1.900000e+001
      vertex  8.000000e+001  2.248500e+002  2.400000e+001
    endloop
  endfacet
  facet normal  0.000000e+000  1.000000e+000  0.000000e+000
    outer loop
      vertex  8.000000e+001  2.248500e+002  1.900000e+001
      vertex  4.740000e+001  2.248500e+002  1.900000e+001
      vertex  8.000000e+001  2.248500e+002  2.400000e+001
    endloop
  endfacet
  facet normal  0.000000e+000  1.000000e+000  0.000000e+000
    outer loop
      vertex  8.000000e+001  2.248500e+002  2.400000e+001
      vertex  4.740000e+001  2.248500e+002  1.900000e+001
      vertex  4.740000e+001  2.248500e+002  2.400000e+001
    endloop
  endfacet
  facet normal  0.000000e+000  1.000000e+000  0.000000e+000
    outer loop
      vertex  4.240000e+001  2.485000e+002  1.900000e+001
      vertex  3.940000e+001  2.485000e+002  1.900000e+001
      vertex  4.240000e+001  2.485000e+002  2.400000e+001
    endloop
  endfacet
  facet normal  0.000000e+000  1.000000e+000  0.000000e+000
    outer loop
      vertex  4.240000e+001  2.485000e+002  2.400000e+001
      vertex  3.940000e+001  2.485000e+002  1.900000e+001
      vertex  3.940000e+001  2.485000e+002  2.400000e+001
    endloop
  endfacet
  facet normal  1.000000e+000  0.000000e+000  0.000000e+000
    outer loop
      vertex  3.940000e+001  2.485000e+002  1.900000e+001
      vertex  3.940000e+001  2.895000e+002  1.900000e+001
      vertex  3.940000e+001  2.485000e+002  2.400000e+001
    endloop
  endfacet
  facet normal  1.000000e+000  -0.000000e+000  0.000000e+000
    outer loop
      vertex  3.940000e+001  2.485000e+002  2.400000e+001
      vertex  3.940000e+001  2.895000e+002  1.900000e+001
      vertex  3.940000e+001  2.895000e+002  2.400000e+001
    endloop
  endfacet
  facet normal  0.000000e+000  -0.000000e+000 -1.000000e+000
    outer loop
      vertex  3.940000e+001  2.895000e+002  1.900000e+001
      vertex  4.240000e+001  3.081500e+002  1.900000e+001
      vertex  4.240000e+001  2.895000e+002  1.900000e+001
    endloop
  endfacet
  facet normal  0.000000e+000  0.000000e+000 -1.000000e+000
    outer loop
      vertex  3.940000e+001  2.895000e+002  1.900000e+001
      vertex  4.243144e+001  3.087098e+002  1.900000e+001
      vertex  4.240000e+001  3.081500e+002  1.900000e+001
    endloop
  endfacet
  facet normal  0.000000e+000  0.000000e+000 -1.000000e+000
    outer loop
      vertex  6.980000e+001  2.098500e+002  1.900000e+001
      vertex  6.980000e+001  1.978500e+002  1.900000e+001
      vertex  6.480000e+001  1.978500e+002  1.900000e+001
    endloop
  endfacet
  facet normal  0.000000e+000  0.000000e+000 -1.000000e+000
    outer loop
      vertex  6.980000e+001  2.098500e+002  1.900000e+001
      vertex  6.480000e+001  1.978500e+002  1.900000e+001
      vertex  2.940000e+001  2.182882e+002  1.900000e+001
    endloop
  endfacet
  facet normal  0.000000e+000  0.000000e+000 -1.000000e+000
    outer loop
      vertex  6.980000e+001  2.098500e+002  1.900000e+001
      vertex  2.940000e+001  2.182882e+002  1.900000e+001
      vertex  8.000000e+001  2.248500e+002  1.900000e+001
    endloop
  endfacet
  facet normal  0.000000e+000  -0.000000e+000 -1.000000e+000
    outer loop
      vertex  6.980000e+001  2.098500e+002  1.900000e+001
      vertex  8.000000e+001  2.248500e+002  1.900000e+001
      vertex  8.000000e+001  2.098500e+002  1.900000e+001
    endloop
  endfacet
  facet normal  0.000000e+000  -0.000000e+000 -1.000000e+000
    outer loop
      vertex  2.940000e+001  2.182882e+002  1.900000e+001
      vertex  3.940000e+001  2.895000e+002  1.900000e+001
      vertex  3.940000e+001  2.485000e+002  1.900000e+001
    endloop
  endfacet
  facet normal  0.000000e+000  -0.000000e+000 -1.000000e+000
    outer loop
      vertex  2.940000e+001  2.182882e+002  1.900000e+001
      vertex  3.940000e+001  2.485000e+002  1.900000e+001
      vertex  4.240000e+001  2.485000e+002  1.900000e+001
    endloop
  endfacet
  facet normal  0.000000e+000  -0.000000e+000 -1.000000e+000
    outer loop
      vertex  2.940000e+001  2.182882e+002  1.900000e+001
      vertex  4.240000e+001  2.485000e+002  1.900000e+001
      vertex  4.240000e+001  2.298500e+002  1.900000e+001
    endloop
  endfacet
  facet normal  0.000000e+000  -0.000000e+000 -1.000000e+000
    outer loop
      vertex  2.940000e+001  2.182882e+002  1.900000e+001
      vertex  4.240000e+001  2.298500e+002  1.900000e+001
      vertex  4.243144e+001  2.292902e+002  1.900000e+001
    endloop
  endfacet
  facet normal  0.000000e+000  -0.000000e+000 -1.000000e+000
    outer loop
      vertex  2.940000e+001  2.182882e+002  1.900000e+001
      vertex  4.243144e+001  2.292902e+002  1.900000e+001
      vertex  4.252536e+001  2.287374e+002  1.900000e+001
    endloop
  endfacet
  facet normal  0.000000e+000  -0.000000e+000 -1.000000e+000
    outer loop
      vertex  2.940000e+001  2.182882e+002  1.900000e+001
      vertex  4.252536e+001  2.287374e+002  1.900000e+001
      vertex  4.268058e+001  2.281986e+002  1.900000e+001
    endloop
  endfacet
  facet normal  0.000000e+000  -0.000000e+000 -1.000000e+000
    outer loop
      vertex  2.940000e+001  2.182882e+002  1.900000e+001
      vertex  4.268058e+001  2.281986e+002  1.900000e+001
      vertex  4.289516e+001  2.276806e+002  1.900000e+001
    endloop
  endfacet
  facet normal  0.000000e+000  -0.000000e+000 -1.000000e+000
    outer loop
      vertex  2.940000e+001  2.182882e+002  1.900000e+001
      vertex  4.289516e+001  2.276806e+002  1.900000e+001
      vertex  4.316638e+001  2.271898e+002  1.900000e+001
    endloop
  endfacet
  facet normal  0.000000e+000  -0.000000e+000 -1.000000e+000
    outer loop
      vertex  2.940000e+001  2.182882e+002  1.900000e+001
      vertex  4.316638e+001  2.271898e+002  1.900000e+001
      vertex  4.349084e+001  2.267325e+002  1.900000e+001
    endloop
  endfacet
  facet normal  0.000000e+000  -0.000000e+000 -1.000000e+000
    outer loop
      vertex  2.940000e+001  2.182882e+002  1.900000e+001
      vertex  4.349084e+001  2.267325e+002  1.900000e+001
      vertex  4.386447e+001  2.263145e+002  1.900000e+001
    endloop
  endfacet
  facet normal  0.000000e+000  -0.000000e+000 -1.000000e+000
    outer loop
      vertex  2.940000e+001  2.182882e+002  1.900000e+001
      vertex  4.386447e+001  2.263145e+002  1.900000e+001
      vertex  4.428255e+001  2.259408e+002  1.900000e+001
    endloop
  endfacet
  facet normal  0.000000e+000  -0.000000e+000 -1.000000e+000
    outer loop
      vertex  2.940000e+001  2.182882e+002  1.900000e+001
      vertex  4.428255e+001  2.259408e+002  1.900000e+001
      vertex  4.473984e+001  2.256164e+002  1.900000e+001
    endloop
  endfacet
  facet normal  0.000000e+000  -0.000000e+000 -1.000000e+000
    outer loop
      vertex  2.940000e+001  2.182882e+002  1.900000e+001
      vertex  4.473984e+001  2.256164e+002  1.900000e+001
      vertex  4.523058e+001  2.253452e+002  1.900000e+001
    endloop
  endfacet
  facet normal  0.000000e+000  -0.000000e+000 -1.000000e+000
    outer loop
      vertex  2.940000e+001  2.182882e+002  1.900000e+001
      vertex  4.523058e+001  2.253452e+002  1.900000e+001
      vertex  4.574860e+001  2.251306e+002  1.900000e+001
    endloop
  endfacet
  facet normal  0.000000e+000  -0.000000e+000 -1.000000e+000
    outer loop
      vertex  2.940000e+001  2.182882e+002  1.900000e+001
      vertex  4.574860e+001  2.251306e+002  1.900000e+001
      vertex  4.628740e+001  2.249754e+002  1.900000e+001
    endloop
  endfacet
  facet normal  0.000000e+000  -0.000000e+000 -1.000000e+000
    outer loop
      vertex  2.940000e+001  2.182882e+002  1.900000e+001
      vertex  4.628740e+001  2.249754e+002  1.900000e+001
      vertex  4.684018e+001  2.248814e+002  1.900000e+001
    endloop
  endfacet
  facet normal  0.000000e+000  -0.000000e+000 -1.000000e+000
    outer loop
      vertex  2.940000e+001  2.182882e+002  1.900000e+001
      vertex  4.684018e+001  2.248814e+002  1.900000e+001
      vertex  4.740000e+001  2.248500e+002  1.900000e+001
    endloop
  endfacet
  facet normal  0.000000e+000  -0.000000e+000 -1.000000e+000
    outer loop
      vertex  2.940000e+001  2.182882e+002  1.900000e+001
      vertex  4.740000e+001  2.248500e+002  1.900000e+001
      vertex  8.000000e+001  2.248500e+002  1.900000e+001
    endloop
  endfacet
  facet normal  0.000000e+000  0.000000e+000 -1.000000e+000
    outer loop
      vertex  2.940000e+001  3.197118e+002  1.900000e+001
      vertex  8.000000e+001  3.131500e+002  1.900000e+001
      vertex  4.740000e+001  3.131500e+002  1.900000e+001
    endloop
  endfacet
  facet normal  -0.000000e+000  0.000000e+000 -1.000000e+000
    outer loop
      vertex  2.940000e+001  3.197118e+002  1.900000e+001
      vertex  4.740000e+001  3.131500e+002  1.900000e+001
      vertex  4.684018e+001  3.131186e+002  1.900000e+001
    endloop
  endfacet
  facet normal  -0.000000e+000  0.000000e+000 -1.000000e+000
    outer loop
      vertex  2.940000e+001  3.197118e+002  1.900000e+001
      vertex  4.684018e+001  3.131186e+002  1.900000e+001
      vertex  4.628740e+001  3.130246e+002  1.900000e+001
    endloop
  endfacet
  facet normal  -0.000000e+000  0.000000e+000 -1.000000e+000
    outer loop
      vertex  2.940000e+001  3.197118e+002  1.900000e+001
      vertex  4.628740e+001  3.130246e+002  1.900000e+001
      vertex  4.574860e+001  3.128694e+002  1.900000e+001
    endloop
  endfacet
  facet normal  -0.000000e+000  0.000000e+000 -1.000000e+000
    outer loop
      vertex  2.940000e+001  3.197118e+002  1.900000e+001
      vertex  4.574860e+001  3.128694e+002  1.900000e+001
      vertex  4.523058e+001  3.126548e+002  1.900000e+001
    endloop
  endfacet
  facet normal  -0.000000e+000  0.000000e+000 -1.000000e+000
    outer loop
      vertex  2.940000e+001  3.197118e+002  1.900000e+001
      vertex  4.523058e+001  3.126548e+002  1.900000e+001
      vertex  4.473984e+001  3.123836e+002  1.900000e+001
    endloop
  endfacet
  facet normal  -0.000000e+000  0.000000e+000 -1.000000e+000
    outer loop
      vertex  2.940000e+001  3.197118e+002  1.900000e+001
      vertex  4.473984e+001  3.123836e+002  1.900000e+001
      vertex  4.428255e+001  3.120591e+002  1.900000e+001
    endloop
  endfacet
  facet normal  -0.000000e+000  0.000000e+000 -1.000000e+000
    outer loop
      vertex  2.940000e+001  3.197118e+002  1.900000e+001
      vertex  4.428255e+001  3.120591e+002  1.900000e+001
      vertex  4.386447e+001  3.116855e+002  1.900000e+001
    endloop
  endfacet
  facet normal  -0.000000e+000  0.000000e+000 -1.000000e+000
    outer loop
      vertex  2.940000e+001  3.197118e+002  1.900000e+001
      vertex  4.386447e+001  3.116855e+002  1.900000e+001
      vertex  4.349084e+001  3.112675e+002  1.900000e+001
    endloop
  endfacet
  facet normal  -0.000000e+000  0.000000e+000 -1.000000e+000
    outer loop
      vertex  2.940000e+001  3.197118e+002  1.900000e+001
      vertex  4.349084e+001  3.112675e+002  1.900000e+001
      vertex  4.316638e+001  3.108102e+002  1.900000e+001
    endloop
  endfacet
  facet normal  -0.000000e+000  0.000000e+000 -1.000000e+000
    outer loop
      vertex  2.940000e+001  3.197118e+002  1.900000e+001
      vertex  4.316638e+001  3.108102e+002  1.900000e+001
      vertex  4.289516e+001  3.103194e+002  1.900000e+001
    endloop
  endfacet
  facet normal  -0.000000e+000  0.000000e+000 -1.000000e+000
    outer loop
      vertex  2.940000e+001  3.197118e+002  1.900000e+001
      vertex  4.289516e+001  3.103194e+002  1.900000e+001
      vertex  4.268058e+001  3.098014e+002  1.900000e+001
    endloop
  endfacet
  facet normal  -0.000000e+000  0.000000e+000 -1.000000e+000
    outer loop
      vertex  2.940000e+001  3.197118e+002  1.900000e+001
      vertex  4.268058e+001  3.098014e+002  1.900000e+001
      vertex  4.252536e+001  3.092626e+002  1.900000e+001
    endloop
  endfacet
  facet normal  -0.000000e+000  0.000000e+000 -1.000000e+000
    outer loop
      vertex  2.940000e+001  3.197118e+002  1.900000e+001
      vertex  4.252536e+001  3.092626e+002  1.900000e+001
      vertex  4.243144e+001  3.087098e+002  1.900000e+001
    endloop
  endfacet
  facet normal  -0.000000e+000  0.000000e+000 -1.000000e+000
    outer loop
      vertex  2.940000e+001  3.197118e+002  1.900000e+001
      vertex  4.243144e+001  3.087098e+002  1.900000e+001
      vertex  3.940000e+001  2.895000e+002  1.900000e+001
    endloop
  endfacet
  facet normal  -0.000000e+000  0.000000e+000 -1.000000e+000
    outer loop
      vertex  2.940000e+001  3.197118e+002  1.900000e+001
      vertex  3.940000e+001  2.895000e+002  1.900000e+001
      vertex  2.940000e+001  2.182882e+002  1.900000e+001
    endloop
  endfacet
  facet normal  -0.000000e+000  0.000000e+000 -9.999999e-001
    outer loop
      vertex  6.480000e+001  3.401500e+002  1.900000e+001
      vertex  6.980000e+001  3.401500e+002  1.900000e+001
      vertex  2.940000e+001  3.197118e+002  1.900000e+001
    endloop
  endfacet
  facet normal  0.000000e+000  0.000000e+000 -1.000000e+000
    outer loop
      vertex  2.940000e+001  3.197118e+002  1.900000e+001
      vertex  6.980000e+001  3.401500e+002  1.900000e+001
      vertex  6.980000e+001  3.281500e+002  1.900000e+001
    endloop
  endfacet
  facet normal  0.000000e+000  -0.000000e+000 -1.000000e+000
    outer loop
      vertex  2.940000e+001  3.197118e+002  1.900000e+001
      vertex  6.980000e+001  3.281500e+002  1.900000e+001
      vertex  8.000000e+001  3.131500e+002  1.900000e+001
    endloop
  endfacet
  facet normal  0.000000e+000  0.000000e+000 -1.000000e+000
    outer loop
      vertex  8.000000e+001  3.131500e+002  1.900000e+001
      vertex  6.980000e+001  3.281500e+002  1.900000e+001
      vertex  8.000000e+001  3.281500e+002  1.900000e+001
    endloop
  endfacet
  facet normal  0.000000e+000 -1.000000e+000  0.000000e+000
    outer loop
      vertex  4.740000e+001  3.131500e+002  1.900000e+001
      vertex  8.000000e+001  3.131500e+002  1.900000e+001
      vertex  4.740000e+001  3.131500e+002  2.400000e+001
    endloop
  endfacet
  facet normal  0.000000e+000 -1.000000e+000  0.000000e+000
    outer loop
      vertex  4.740000e+001  3.131500e+002  2.400000e+001
      vertex  8.000000e+001  3.131500e+002  1.900000e+001
      vertex  8.000000e+001  3.131500e+002  2.400000e+001
    endloop
  endfacet
  facet normal  4.837419e-001 -8.752107e-001  0.000000e+000
    outer loop
      vertex  4.523058e+001  3.126548e+002  1.900000e+001
      vertex  4.473984e+001  3.123836e+002  2.400000e+001
      vertex  4.473984e+001  3.123836e+002  1.900000e+001
    endloop
  endfacet
  facet normal  5.786688e-001 -8.155627e-001  0.000000e+000
    outer loop
      vertex  4.473984e+001  3.123836e+002  1.900000e+001
      vertex  4.473984e+001  3.123836e+002  2.400000e+001
      vertex  4.428255e+001  3.120591e+002  2.400000e+001
    endloop
  endfacet
  facet normal  5.786688e-001 -8.155627e-001  0.000000e+000
    outer loop
      vertex  4.473984e+001  3.123836e+002  1.900000e+001
      vertex  4.428255e+001  3.120591e+002  2.400000e+001
      vertex  4.428255e+001  3.120591e+002  1.900000e+001
    endloop
  endfacet
  facet normal  6.663210e-001 -7.456650e-001  0.000000e+000
    outer loop
      vertex  4.428255e+001  3.120591e+002  1.900000e+001
      vertex  4.428255e+001  3.120591e+002  2.400000e+001
      vertex  4.386447e+001  3.116855e+002  2.400000e+001
    endloop
  endfacet
  facet normal  6.663210e-001 -7.456650e-001  0.000000e+000
    outer loop
      vertex  4.428255e+001  3.120591e+002  1.900000e+001
      vertex  4.386447e+001  3.116855e+002  2.400000e+001
      vertex  4.386447e+001  3.116855e+002  1.900000e+001
    endloop
  endfacet
  facet normal  4.837419e-001 -8.752107e-001  0.000000e+000
    outer loop
      vertex  4.473984e+001  3.123836e+002  2.400000e+001
      vertex  4.523058e+001  3.126548e+002  1.900000e+001
      vertex  4.523058e+001  3.126548e+002  2.400000e+001
    endloop
  endfacet
  facet normal  3.826803e-001 -9.238809e-001  0.000000e+000
    outer loop
      vertex  4.523058e+001  3.126548e+002  2.400000e+001
      vertex  4.523058e+001  3.126548e+002  1.900000e+001
      vertex  4.574860e+001  3.128694e+002  1.900000e+001
    endloop
  endfacet
  facet normal  3.826803e-001 -9.238809e-001  0.000000e+000
    outer loop
      vertex  4.523058e+001  3.126548e+002  2.400000e+001
      vertex  4.574860e+001  3.128694e+002  1.900000e+001
      vertex  4.574860e+001  3.128694e+002  2.400000e+001
    endloop
  endfacet
  facet normal  2.768177e-001 -9.609224e-001  0.000000e+000
    outer loop
      vertex  4.574860e+001  3.128694e+002  2.400000e+001
      vertex  4.574860e+001  3.128694e+002  1.900000e+001
      vertex  4.628740e+001  3.130246e+002  1.900000e+001
    endloop
  endfacet
  facet normal  2.768177e-001 -9.609224e-001  0.000000e+000
    outer loop
      vertex  4.574860e+001  3.128694e+002  2.400000e+001
      vertex  4.628740e+001  3.130246e+002  1.900000e+001
      vertex  4.628740e+001  3.130246e+002  2.400000e+001
    endloop
  endfacet
  facet normal  1.675259e-001 -9.858677e-001  0.000000e+000
    outer loop
      vertex  4.628740e+001  3.130246e+002  2.400000e+001
      vertex  4.628740e+001  3.130246e+002  1.900000e+001
      vertex  4.684018e+001  3.131186e+002  1.900000e+001
    endloop
  endfacet
  facet normal  1.675259e-001 -9.858677e-001  0.000000e+000
    outer loop
      vertex  4.628740e+001  3.130246e+002  2.400000e+001
      vertex  4.684018e+001  3.131186e+002  1.900000e+001
      vertex  4.684018e+001  3.131186e+002  2.400000e+001
    endloop
  endfacet
  facet normal  5.606009e-002 -9.984275e-001  0.000000e+000
    outer loop
      vertex  4.684018e+001  3.131186e+002  2.400000e+001
      vertex  4.684018e+001  3.131186e+002  1.900000e+001
      vertex  4.740000e+001  3.131500e+002  1.900000e+001
    endloop
  endfacet
  facet normal  5.606009e-002 -9.984275e-001  0.000000e+000
    outer loop
      vertex  4.684018e+001  3.131186e+002  2.400000e+001
      vertex  4.740000e+001  3.131500e+002  1.900000e+001
      vertex  4.740000e+001  3.131500e+002  2.400000e+001
    endloop
  endfacet
  facet normal  9.609165e-001 -2.768384e-001  0.000000e+000
    outer loop
      vertex  4.268058e+001  3.098014e+002  1.900000e+001
      vertex  4.252536e+001  3.092626e+002  2.400000e+001
      vertex  4.252536e+001  3.092626e+002  1.900000e+001
    endloop
  endfacet
  facet normal  9.858717e-001 -1.675027e-001  0.000000e+000
    outer loop
      vertex  4.252536e+001  3.092626e+002  1.900000e+001
      vertex  4.252536e+001  3.092626e+002  2.400000e+001
      vertex  4.243144e+001  3.087098e+002  2.400000e+001
    endloop
  endfacet
  facet normal  9.858717e-001 -1.675027e-001  0.000000e+000
    outer loop
      vertex  4.252536e+001  3.092626e+002  1.900000e+001
      vertex  4.243144e+001  3.087098e+002  2.400000e+001
      vertex  4.243144e+001  3.087098e+002  1.900000e+001
    endloop
  endfacet
  facet normal  9.984269e-001 -5.606763e-002  0.000000e+000
    outer loop
      vertex  4.243144e+001  3.087098e+002  1.900000e+001
      vertex  4.243144e+001  3.087098e+002  2.400000e+001
      vertex  4.240000e+001  3.081500e+002  2.400000e+001
    endloop
  endfacet
  facet normal  9.984269e-001 -5.606763e-002  0.000000e+000
    outer loop
      vertex  4.243144e+001  3.087098e+002  1.900000e+001
      vertex  4.240000e+001  3.081500e+002  2.400000e+001
      vertex  4.240000e+001  3.081500e+002  1.900000e+001
    endloop
  endfacet
  facet normal  9.609165e-001 -2.768384e-001  0.000000e+000
    outer loop
      vertex  4.252536e+001  3.092626e+002  2.400000e+001
      vertex  4.268058e+001  3.098014e+002  1.900000e+001
      vertex  4.268058e+001  3.098014e+002  2.400000e+001
    endloop
  endfacet
  facet normal  9.238824e-001 -3.826765e-001  0.000000e+000
    outer loop
      vertex  4.268058e+001  3.098014e+002  2.400000e+001
      vertex  4.268058e+001  3.098014e+002  1.900000e+001
      vertex  4.289516e+001  3.103194e+002  1.900000e+001
    endloop
  endfacet
  facet normal  9.238824e-001 -3.826765e-001  0.000000e+000
    outer loop
      vertex  4.268058e+001  3.098014e+002  2.400000e+001
      vertex  4.289516e+001  3.103194e+002  1.900000e+001
      vertex  4.289516e+001  3.103194e+002  2.400000e+001
    endloop
  endfacet
  facet normal  8.752171e-001 -4.837303e-001  0.000000e+000
    outer loop
      vertex  4.289516e+001  3.103194e+002  2.400000e+001
      vertex  4.289516e+001  3.103194e+002  1.900000e+001
      vertex  4.316638e+001  3.108102e+002  1.900000e+001
    endloop
  endfacet
  facet normal  8.752171e-001 -4.837303e-001  0.000000e+000
    outer loop
      vertex  4.289516e+001  3.103194e+002  2.400000e+001
      vertex  4.316638e+001  3.108102e+002  1.900000e+001
      vertex  4.316638e+001  3.108102e+002  2.400000e+001
    endloop
  endfacet
  facet normal  8.155718e-001 -5.786559e-001  0.000000e+000
    outer loop
      vertex  4.316638e+001  3.108102e+002  2.400000e+001
      vertex  4.316638e+001  3.108102e+002  1.900000e+001
      vertex  4.349084e+001  3.112675e+002  1.900000e+001
    endloop
  endfacet
  facet normal  8.155718e-001 -5.786559e-001  0.000000e+000
    outer loop
      vertex  4.316638e+001  3.108102e+002  2.400000e+001
      vertex  4.349084e+001  3.112675e+002  1.900000e+001
      vertex  4.349084e+001  3.112675e+002  2.400000e+001
    endloop
  endfacet
  facet normal  7.456440e-001 -6.663445e-001  0.000000e+000
    outer loop
      vertex  4.349084e+001  3.112675e+002  2.400000e+001
      vertex  4.349084e+001  3.112675e+002  1.900000e+001
      vertex  4.386447e+001  3.116855e+002  1.900000e+001
    endloop
  endfacet
  facet normal  7.456440e-001 -6.663445e-001  0.000000e+000
    outer loop
      vertex  4.349084e+001  3.112675e+002  2.400000e+001
      vertex  4.386447e+001  3.116855e+002  1.900000e+001
      vertex  4.386447e+001  3.116855e+002  2.400000e+001
    endloop
  endfacet
  facet normal  9.999999e-001  0.000000e+000  0.000000e+000
    outer loop
      vertex  4.240000e+001  2.298500e+002  1.900000e+001
      vertex  4.240000e+001  2.485000e+002  1.900000e+001
      vertex  4.240000e+001  2.298500e+002  2.400000e+001
    endloop
  endfacet
  facet normal  9.999999e-001  -0.000000e+000  0.000000e+000
    outer loop
      vertex  4.240000e+001  2.298500e+002  2.400000e+001
      vertex  4.240000e+001  2.485000e+002  1.900000e+001
      vertex  4.240000e+001  2.485000e+002  2.400000e+001
    endloop
  endfacet
  facet normal  8.752298e-001  4.837072e-001  0.000000e+000
    outer loop
      vertex  4.289516e+001  2.276806e+002  1.900000e+001
      vertex  4.316638e+001  2.271898e+002  2.400000e+001
      vertex  4.316638e+001  2.271898e+002  1.900000e+001
    endloop
  endfacet
  facet normal  8.155627e-001  5.786688e-001  -0.000000e+000
    outer loop
      vertex  4.316638e+001  2.271898e+002  1.900000e+001
      vertex  4.316638e+001  2.271898e+002  2.400000e+001
      vertex  4.349084e+001  2.267325e+002  2.400000e+001
    endloop
  endfacet
  facet normal  8.155627e-001  5.786688e-001  0.000000e+000
    outer loop
      vertex  4.316638e+001  2.271898e+002  1.900000e+001
      vertex  4.349084e+001  2.267325e+002  2.400000e+001
      vertex  4.349084e+001  2.267325e+002  1.900000e+001
    endloop
  endfacet
  facet normal  7.456319e-001  6.663580e-001  -0.000000e+000
    outer loop
      vertex  4.349084e+001  2.267325e+002  1.900000e+001
      vertex  4.349084e+001  2.267325e+002  2.400000e+001
      vertex  4.386447e+001  2.263145e+002  2.400000e+001
    endloop
  endfacet
  facet normal  7.456319e-001  6.663580e-001  0.000000e+000
    outer loop
      vertex  4.349084e+001  2.267325e+002  1.900000e+001
      vertex  4.386447e+001  2.263145e+002  2.400000e+001
      vertex  4.386447e+001  2.263145e+002  1.900000e+001
    endloop
  endfacet
  facet normal  8.752298e-001  4.837072e-001  -0.000000e+000
    outer loop
      vertex  4.316638e+001  2.271898e+002  2.400000e+001
      vertex  4.289516e+001  2.276806e+002  1.900000e+001
      vertex  4.289516e+001  2.276806e+002  2.400000e+001
    endloop
  endfacet
  facet normal  9.238784e-001  3.826861e-001  0.000000e+000
    outer loop
      vertex  4.289516e+001  2.276806e+002  2.400000e+001
      vertex  4.289516e+001  2.276806e+002  1.900000e+001
      vertex  4.268058e+001  2.281986e+002  1.900000e+001
    endloop
  endfacet
  facet normal  9.238784e-001  3.826861e-001  -0.000000e+000
    outer loop
      vertex  4.289516e+001  2.276806e+002  2.400000e+001
      vertex  4.268058e+001  2.281986e+002  1.900000e+001
      vertex  4.268058e+001  2.281986e+002  2.400000e+001
    endloop
  endfacet
  facet normal  9.609165e-001  2.768384e-001  0.000000e+000
    outer loop
      vertex  4.268058e+001  2.281986e+002  2.400000e+001
      vertex  4.268058e+001  2.281986e+002  1.900000e+001
      vertex  4.252536e+001  2.287374e+002  1.900000e+001
    endloop
  endfacet
  facet normal  9.609165e-001  2.768384e-001  -0.000000e+000
    outer loop
      vertex  4.268058e+001  2.281986e+002  2.400000e+001
      vertex  4.252536e+001  2.287374e+002  1.900000e+001
      vertex  4.252536e+001  2.287374e+002  2.400000e+001
    endloop
  endfacet
  facet normal  9.858709e-001  1.675072e-001  0.000000e+000
    outer loop
      vertex  4.252536e+001  2.287374e+002  2.400000e+001
      vertex  4.252536e+001  2.287374e+002  1.900000e+001
      vertex  4.243144e+001  2.292902e+002  1.900000e+001
    endloop
  endfacet
  facet normal  9.858709e-001  1.675072e-001  -0.000000e+000
    outer loop
      vertex  4.252536e+001  2.287374e+002  2.400000e+001
      vertex  4.243144e+001  2.292902e+002  1.900000e+001
      vertex  4.243144e+001  2.292902e+002  2.400000e+001
    endloop
  endfacet
  facet normal  9.984271e-001  5.606611e-002  0.000000e+000
    outer loop
      vertex  4.243144e+001  2.292902e+002  2.400000e+001
      vertex  4.243144e+001  2.292902e+002  1.900000e+001
      vertex  4.240000e+001  2.298500e+002  1.900000e+001
    endloop
  endfacet
  facet normal  9.984271e-001  5.606611e-002  -0.000000e+000
    outer loop
      vertex  4.243144e+001  2.292902e+002  2.400000e+001
      vertex  4.240000e+001  2.298500e+002  1.900000e+001
      vertex  4.240000e+001  2.298500e+002  2.400000e+001
    endloop
  endfacet
  facet normal  2.768428e-001  9.609151e-001  0.000000e+000
    outer loop
      vertex  4.574860e+001  2.251306e+002  1.900000e+001
      vertex  4.628740e+001  2.249754e+002  2.400000e+001
      vertex  4.628740e+001  2.249754e+002  1.900000e+001
    endloop
  endfacet
  facet normal  1.674994e-001  9.858721e-001  -0.000000e+000
    outer loop
      vertex  4.628740e+001  2.249754e+002  1.900000e+001
      vertex  4.628740e+001  2.249754e+002  2.400000e+001
      vertex  4.684018e+001  2.248814e+002  2.400000e+001
    endloop
  endfacet
  facet normal  1.674994e-001  9.858721e-001  0.000000e+000
    outer loop
      vertex  4.628740e+001  2.249754e+002  1.900000e+001
      vertex  4.684018e+001  2.248814e+002  2.400000e+001
      vertex  4.684018e+001  2.248814e+002  1.900000e+001
    endloop
  endfacet
  facet normal  5.606009e-002  9.984275e-001  -0.000000e+000
    outer loop
      vertex  4.684018e+001  2.248814e+002  1.900000e+001
      vertex  4.684018e+001  2.248814e+002  2.400000e+001
      vertex  4.740000e+001  2.248500e+002  2.400000e+001
    endloop
  endfacet
  facet normal  5.606009e-002  9.984275e-001  0.000000e+000
    outer loop
      vertex  4.684018e+001  2.248814e+002  1.900000e+001
      vertex  4.740000e+001  2.248500e+002  2.400000e+001
      vertex  4.740000e+001  2.248500e+002  1.900000e+001
    endloop
  endfacet
  facet normal  2.768428e-001  9.609151e-001  -0.000000e+000
    outer loop
      vertex  4.628740e+001  2.249754e+002  2.400000e+001
      vertex  4.574860e+001  2.251306e+002  1.900000e+001
      vertex  4.574860e+001  2.251306e+002  2.400000e+001
    endloop
  endfacet
  facet normal  3.826803e-001  9.238809e-001  0.000000e+000
    outer loop
      vertex  4.574860e+001  2.251306e+002  2.400000e+001
      vertex  4.574860e+001  2.251306e+002  1.900000e+001
      vertex  4.523058e+001  2.253452e+002  1.900000e+001
    endloop
  endfacet
  facet normal  3.826803e-001  9.238809e-001  -0.000000e+000
    outer loop
      vertex  4.574860e+001  2.251306e+002  2.400000e+001
      vertex  4.523058e+001  2.253452e+002  1.900000e+001
      vertex  4.523058e+001  2.253452e+002  2.400000e+001
    endloop
  endfacet
  facet normal  4.837211e-001  8.752222e-001  0.000000e+000
    outer loop
      vertex  4.523058e+001  2.253452e+002  2.400000e+001
      vertex  4.523058e+001  2.253452e+002  1.900000e+001
      vertex  4.473984e+001  2.256164e+002  1.900000e+001
    endloop
  endfacet
  facet normal  4.837211e-001  8.752222e-001  -0.000000e+000
    outer loop
      vertex  4.523058e+001  2.253452e+002  2.400000e+001
      vertex  4.473984e+001  2.256164e+002  1.900000e+001
      vertex  4.473984e+001  2.256164e+002  2.400000e+001
    endloop
  endfacet
  facet normal  5.786688e-001  8.155627e-001  0.000000e+000
    outer loop
      vertex  4.473984e+001  2.256164e+002  2.400000e+001
      vertex  4.473984e+001  2.256164e+002  1.900000e+001
      vertex  4.428255e+001  2.259408e+002  1.900000e+001
    endloop
  endfacet
  facet normal  5.786688e-001  8.155627e-001  -0.000000e+000
    outer loop
      vertex  4.473984e+001  2.256164e+002  2.400000e+001
      vertex  4.428255e+001  2.259408e+002  1.900000e+001
      vertex  4.428255e+001  2.259408e+002  2.400000e+001
    endloop
  endfacet
  facet normal  6.663513e-001  7.456380e-001  0.000000e+000
    outer loop
      vertex  4.428255e+001  2.259408e+002  2.400000e+001
      vertex  4.428255e+001  2.259408e+002  1.900000e+001
      vertex  4.386447e+001  2.263145e+002  1.900000e+001
    endloop
  endfacet
  facet normal  6.663513e-001  7.456380e-001  -0.000000e+000
    outer loop
      vertex  4.428255e+001  2.259408e+002  2.400000e+001
      vertex  4.386447e+001  2.263145e+002  1.900000e+001
      vertex  4.386447e+001  2.263145e+002  2.400000e+001
    endloop
  endfacet
endsolid CATIA STL
